<svg width="30" height="30" viewBox="0 0 30 30" fill="none" xmlns="http://www.w3.org/2000/svg">
<path d="M25.1703 7.7536L14.7884 11.4848L14.7555 11.478L14.725 11.4843L4.3447 7.7536L14.7575 4.01127L25.1703 7.7536Z" fill="white" stroke="#FFBE02"/>
<path d="M14.58 11.8125V26.1246L4 21.6477V8.00346L14.58 11.8125ZM15.08 26.3686V11.6886V26.3686Z" fill="white" stroke="#FFBE02"/>
<path d="M14.935 26.1445V11.8125L25.515 8.00346V21.3578L14.935 26.1445Z" fill="white" stroke="#FFBE02"/>
<path d="M18.015 4.65356L7.27502 8.97856V14.3436C7.27524 14.4173 7.29781 14.4893 7.33976 14.55C7.38172 14.6107 7.44108 14.6573 7.51003 14.6836L10.545 15.8386C10.588 15.8461 10.632 15.8461 10.675 15.8386C10.7482 15.8371 10.8194 15.8145 10.88 15.7736C10.9291 15.7392 10.9693 15.6936 10.9971 15.6405C11.025 15.5875 11.0397 15.5285 11.04 15.4686V10.3686L22.295 6.18856L18.015 4.65356Z" fill="#FFBE02"/>
<path d="M10.7149 10.2337L7.57995 9.11366L7.27495 9.00366C7.2674 9.03994 7.2674 9.07738 7.27495 9.11366V14.3437C7.27516 14.4174 7.29774 14.4894 7.33969 14.5501C7.38164 14.6108 7.441 14.6574 7.50995 14.6837L10.5449 15.8387C10.588 15.8462 10.6319 15.8462 10.6749 15.8387C10.7481 15.8372 10.8193 15.8146 10.8799 15.7737C10.929 15.7393 10.9692 15.6937 10.997 15.6406C11.0249 15.5876 11.0396 15.5286 11.0399 15.4687V10.3487L10.7149 10.2337Z" fill="#FFBE02"/>
<circle cx="20.5" cy="23" r="4" fill="#FFBE02"/>
<path d="M19 23H22" stroke="white" stroke-width="1.2" stroke-linecap="round"/>
<path d="M20.5 24.5V21.5" stroke="white" stroke-width="1.2" stroke-linecap="round"/>
</svg>
