<svg width="40" height="40" viewBox="0 0 40 40" fill="none" xmlns="http://www.w3.org/2000/svg">
<path d="M25.0139 3C26.9 3.01942 28.4361 3.99057 29.3306 5.73862C29.5615 6.19992 29.8835 6.87365 30.2207 7.58436L30.6279 8.44375L30.8278 8.8657L31.0222 9.29301C31.1 9.42897 31.2361 9.52608 31.4111 9.52608C36.0778 9.52608 39.8889 13.333 39.8889 17.9944V29.5316C39.8889 34.1931 36.0778 38 31.4111 38H9.47778C4.79167 38 1 34.1931 1 29.5316V17.9944C1 13.333 4.79167 9.52608 9.47778 9.52608C9.63333 9.52608 9.78889 9.44839 9.84722 9.29301L9.96389 9.05993C10.5083 7.91398 11.1694 6.51554 11.5583 5.73862C12.4528 3.99057 13.9694 3.01942 15.8556 3H25.0139ZM20.4444 15.4501C18.4028 15.4501 16.4778 16.2464 15.0194 17.7031C13.5806 19.1598 12.7833 21.0633 12.8028 23.0832C12.8028 25.1226 13.6 27.0261 15.0389 28.4828C16.4972 29.9201 18.4028 30.7164 20.4444 30.7164C22.5444 30.7164 24.45 29.8618 25.8306 28.4828C27.2111 27.1038 28.0667 25.2003 28.0861 23.0832C28.0861 21.0633 27.2889 19.1404 25.85 17.6837C24.4111 16.2464 22.4861 15.4501 20.4444 15.4501ZM20.4444 18.3635C21.7083 18.3635 22.8944 18.8491 23.7889 19.7425C24.6833 20.636 25.1694 21.8208 25.1694 23.0832C25.15 25.6859 23.05 27.803 20.4444 27.803C19.1806 27.803 17.9944 27.3174 17.1 26.424C16.2056 25.5305 15.7194 24.3457 15.7194 23.0832V23.0638C15.7 21.8402 16.1861 20.6554 17.0806 19.7619C17.9944 18.8491 19.1806 18.3635 20.4444 18.3635ZM31.3528 14.9839C30.3806 14.9839 29.6028 15.7802 29.6028 16.7514C29.6028 17.7225 30.3806 18.4994 31.3528 18.4994C32.325 18.4994 33.1222 17.7225 33.1222 16.7514C33.1222 15.7802 32.325 14.9839 31.3528 14.9839Z" fill="#686868"/>
</svg>
