<svg width="15" height="14" viewBox="0 0 15 14" fill="none" xmlns="http://www.w3.org/2000/svg">
<path d="M2.60002 0.700195C2.21343 0.700195 1.90002 1.0136 1.90002 1.4002C1.90002 1.78679 2.21343 2.1002 2.60002 2.1002H3.45348L3.66737 2.95577C3.66962 2.96566 3.67207 2.97547 3.67473 2.9852L4.62479 6.78544L3.99999 7.41025C3.11804 8.29219 3.74267 9.8002 4.98994 9.8002H11C11.3866 9.8002 11.7 9.48679 11.7 9.1002C11.7 8.7136 11.3866 8.4002 11 8.4002L4.98994 8.4002L5.68994 7.7002H10.3C10.5652 7.7002 10.8075 7.55039 10.9261 7.31324L13.0261 3.11325C13.1346 2.89625 13.123 2.63856 12.9955 2.43218C12.8679 2.22581 12.6426 2.1002 12.4 2.1002H4.89657L4.67912 1.23042C4.60122 0.918803 4.32123 0.700195 4.00002 0.700195H2.60002Z" fill="white"/>
<path d="M11.7 11.5502C11.7 12.1301 11.2299 12.6002 10.65 12.6002C10.0701 12.6002 9.60002 12.1301 9.60002 11.5502C9.60002 10.9703 10.0701 10.5002 10.65 10.5002C11.2299 10.5002 11.7 10.9703 11.7 11.5502Z" fill="white"/>
<path d="M5.05002 12.6002C5.62992 12.6002 6.10002 12.1301 6.10002 11.5502C6.10002 10.9703 5.62992 10.5002 5.05002 10.5002C4.47013 10.5002 4.00002 10.9703 4.00002 11.5502C4.00002 12.1301 4.47013 12.6002 5.05002 12.6002Z" fill="white"/>
</svg>
