<svg width="30" height="30" viewBox="0 0 30 30" fill="none" xmlns="http://www.w3.org/2000/svg">
<path d="M4.81999 4.76514H23C23.0849 4.76514 23.1663 4.79885 23.2263 4.85886C23.2863 4.91887 23.32 5.00027 23.32 5.08514V26.3651C23.32 26.4513 23.2858 26.534 23.2248 26.5949C23.1639 26.6559 23.0812 26.6901 22.995 26.6901H4.81999C4.7338 26.6901 4.65113 26.6559 4.59019 26.5949C4.52924 26.534 4.495 26.4513 4.495 26.3651V5.09014C4.495 5.00394 4.52924 4.92128 4.59019 4.86033C4.65113 4.79938 4.7338 4.76514 4.81999 4.76514Z" fill="#FFBE02"/>
<path d="M20.985 6.43506H7.09001C6.91052 6.43506 6.76501 6.58057 6.76501 6.76006V23.7151C6.76501 23.8946 6.91052 24.0401 7.09001 24.0401H20.985C21.1645 24.0401 21.31 23.8946 21.31 23.7151V6.76006C21.31 6.58057 21.1645 6.43506 20.985 6.43506Z" fill="#F9FBFF"/>
<path d="M15.8235 3.82744L15.8694 4.17509H16.22H19.26V7.46509H8.57505V4.17509H11.61H11.9607L12.0066 3.82745C12.0677 3.36456 12.295 2.93966 12.6461 2.63187C12.9972 2.32409 13.4481 2.15439 13.9151 2.15439C14.382 2.15439 14.8329 2.32409 15.184 2.63187C15.5351 2.93966 15.7624 3.36456 15.8235 3.82744Z" fill="#F9FBFF" stroke="#FFBE02" stroke-width="0.8"/>
<path d="M10.325 9.93494C10.325 10.107 10.2739 10.2752 10.1783 10.4183C10.0827 10.5614 9.94687 10.6729 9.7879 10.7387C9.62892 10.8046 9.454 10.8218 9.28523 10.7882C9.11647 10.7547 8.96145 10.6718 8.83978 10.5501C8.71811 10.4285 8.63525 10.2734 8.60168 10.1047C8.56811 9.93591 8.58534 9.76098 8.65119 9.60201C8.71703 9.44304 8.82854 9.30716 8.97161 9.21156C9.11469 9.11597 9.28289 9.06494 9.45496 9.06494C9.6857 9.06494 9.90699 9.1566 10.0701 9.31976C10.2333 9.48292 10.325 9.7042 10.325 9.93494Z" fill="#EB321A"/>
<path d="M18.845 10.2599H11.845C11.7588 10.2599 11.6762 10.2256 11.6152 10.1647C11.5543 10.1037 11.52 10.0211 11.52 9.93486C11.52 9.84867 11.5543 9.766 11.6152 9.70505C11.6762 9.6441 11.7588 9.60986 11.845 9.60986H18.845C18.9312 9.60986 19.0139 9.6441 19.0748 9.70505C19.1358 9.766 19.17 9.84867 19.17 9.93486C19.17 10.0211 19.1358 10.1037 19.0748 10.1647C19.0139 10.2256 18.9312 10.2599 18.845 10.2599Z" fill="#EB321A"/>
<path d="M10.3249 12.7449C10.3259 12.9172 10.2758 13.0859 10.1808 13.2296C10.0858 13.3733 9.95024 13.4856 9.79136 13.5522C9.63248 13.6188 9.4574 13.6368 9.2883 13.6038C9.11921 13.5708 8.96373 13.4883 8.84155 13.3668C8.71938 13.2454 8.63602 13.0904 8.60205 12.9215C8.56807 12.7526 8.58501 12.5774 8.6507 12.4181C8.7164 12.2589 8.82791 12.1227 8.97109 12.0269C9.11426 11.931 9.28267 11.8799 9.45495 11.8799C9.68482 11.8799 9.90536 11.9709 10.0684 12.1329C10.2314 12.295 10.3236 12.515 10.3249 12.7449Z" fill="#EB321A"/>
<path d="M18.845 13.0699H11.845C11.7992 13.0756 11.7528 13.0715 11.7088 13.0579C11.6648 13.0443 11.6242 13.0215 11.5896 12.991C11.5551 12.9605 11.5274 12.923 11.5085 12.881C11.4895 12.839 11.4797 12.7934 11.4797 12.7474C11.4797 12.7013 11.4895 12.6557 11.5085 12.6137C11.5274 12.5717 11.5551 12.5342 11.5896 12.5037C11.6242 12.4732 11.6648 12.4504 11.7088 12.4368C11.7528 12.4232 11.7992 12.4192 11.845 12.4249H18.845C18.9236 12.4347 18.9959 12.4729 19.0484 12.5322C19.1008 12.5916 19.1297 12.6681 19.1297 12.7474C19.1297 12.8266 19.1008 12.9031 19.0484 12.9625C18.9959 13.0219 18.9236 13.0601 18.845 13.0699Z" fill="#EB321A"/>
<path d="M10.325 15.5599C10.325 15.732 10.2739 15.9002 10.1783 16.0433C10.0827 16.1864 9.94687 16.2979 9.7879 16.3637C9.62892 16.4296 9.454 16.4468 9.28523 16.4132C9.11647 16.3797 8.96145 16.2968 8.83978 16.1751C8.71811 16.0535 8.63525 15.8984 8.60168 15.7297C8.56811 15.5609 8.58534 15.386 8.65119 15.227C8.71703 15.068 8.82854 14.9322 8.97161 14.8366C9.11469 14.741 9.28289 14.6899 9.45496 14.6899C9.6857 14.6899 9.90699 14.7816 10.0701 14.9448C10.2333 15.1079 10.325 15.3292 10.325 15.5599Z" fill="#EB321A"/>
<path d="M18.845 15.8799H11.845C11.8026 15.8805 11.7604 15.8727 11.721 15.857C11.6816 15.8412 11.6458 15.8177 11.6155 15.7879C11.5853 15.7581 11.5612 15.7226 11.5448 15.6835C11.5285 15.6443 11.52 15.6023 11.52 15.5599C11.52 15.4737 11.5543 15.391 11.6152 15.3301C11.6762 15.2691 11.7588 15.2349 11.845 15.2349H18.845C18.9303 15.2362 19.0117 15.271 19.0716 15.3318C19.1315 15.3926 19.165 15.4745 19.165 15.5599C19.165 15.6447 19.1313 15.7261 19.0713 15.7861C19.0113 15.8461 18.9299 15.8799 18.845 15.8799Z" fill="#EB321A"/>
<path d="M10.325 18.37C10.325 18.5421 10.2739 18.7103 10.1783 18.8533C10.0827 18.9964 9.94687 19.1079 9.7879 19.1738C9.62892 19.2396 9.454 19.2569 9.28523 19.2233C9.11647 19.1897 8.96145 19.1069 8.83978 18.9852C8.71811 18.8635 8.63525 18.7085 8.60168 18.5397C8.56811 18.371 8.58534 18.196 8.65119 18.0371C8.71703 17.8781 8.82854 17.7422 8.97161 17.6466C9.11469 17.551 9.28289 17.5 9.45496 17.5C9.56921 17.5 9.68234 17.5225 9.7879 17.5662C9.89345 17.6099 9.98936 17.674 10.0701 17.7548C10.1509 17.8356 10.215 17.9315 10.2587 18.0371C10.3025 18.1426 10.325 18.2558 10.325 18.37Z" fill="#EB321A"/>
<path d="M18.845 18.6949H11.845C11.7992 18.7006 11.7528 18.6965 11.7088 18.6829C11.6648 18.6693 11.6242 18.6465 11.5896 18.616C11.5551 18.5855 11.5274 18.548 11.5085 18.506C11.4895 18.464 11.4797 18.4184 11.4797 18.3724C11.4797 18.3263 11.4895 18.2807 11.5085 18.2387C11.5274 18.1967 11.5551 18.1592 11.5896 18.1287C11.6242 18.0982 11.6648 18.0754 11.7088 18.0618C11.7528 18.0482 11.7992 18.0442 11.845 18.0499H18.845C18.9236 18.0597 18.9959 18.0979 19.0484 18.1572C19.1008 18.2166 19.1297 18.2931 19.1297 18.3724C19.1297 18.4516 19.1008 18.5281 19.0484 18.5875C18.9959 18.6469 18.9236 18.6851 18.845 18.6949Z" fill="#EB321A"/>
<circle cx="23.5" cy="24" r="4" fill="#FFBE02"/>
<path d="M22 24H25" stroke="white" stroke-width="1.2" stroke-linecap="round"/>
<path d="M23.5 25.5V22.5" stroke="white" stroke-width="1.2" stroke-linecap="round"/>
</svg>
