<svg width="19" height="18" viewBox="0 0 19 18" fill="none" xmlns="http://www.w3.org/2000/svg">
<path fill-rule="evenodd" clip-rule="evenodd" d="M9.5 16.2C13.4765 16.2 16.7 12.9765 16.7 9.00005C16.7 5.0236 13.4765 1.80005 9.5 1.80005C5.52355 1.80005 2.3 5.0236 2.3 9.00005C2.3 12.9765 5.52355 16.2 9.5 16.2ZM12.8364 7.83644C13.1879 7.48497 13.1879 6.91512 12.8364 6.56365C12.4849 6.21218 11.9151 6.21218 11.5636 6.56365L8.6 9.52726L7.4364 8.36365C7.08493 8.01218 6.51508 8.01218 6.16361 8.36365C5.81214 8.71512 5.81214 9.28497 6.16361 9.63645L7.96361 11.4364C8.31508 11.7879 8.88493 11.7879 9.2364 11.4364L12.8364 7.83644Z" fill="#4CAE4C"/>
</svg>
