<svg width="10" height="10" viewBox="0 0 10 10" fill="none" xmlns="http://www.w3.org/2000/svg">
<g clip-path="url(#clip0_1766_45062)">
<path d="M8.33333 3.75H4.58333C4.1231 3.75 3.75 4.1231 3.75 4.58333V8.33333C3.75 8.79357 4.1231 9.16667 4.58333 9.16667H8.33333C8.79357 9.16667 9.16667 8.79357 9.16667 8.33333V4.58333C9.16667 4.1231 8.79357 3.75 8.33333 3.75Z" stroke="#4385FF" stroke-linecap="round" stroke-linejoin="round"/>
<path d="M2.08331 6.25004H1.66665C1.44563 6.25004 1.23367 6.16224 1.07739 6.00596C0.92111 5.84968 0.833313 5.63772 0.833313 5.41671V1.66671C0.833313 1.44569 0.92111 1.23373 1.07739 1.07745C1.23367 0.921171 1.44563 0.833374 1.66665 0.833374H5.41665C5.63766 0.833374 5.84962 0.921171 6.0059 1.07745C6.16218 1.23373 6.24998 1.44569 6.24998 1.66671V2.08337" stroke="#4385FF" stroke-linecap="round" stroke-linejoin="round"/>
</g>
<defs>
<clipPath id="clip0_1766_45062">
<rect width="10" height="10" fill="white"/>
</clipPath>
</defs>
</svg>
