<svg width="38" height="38" viewBox="0 0 38 38" fill="none" xmlns="http://www.w3.org/2000/svg">
<ellipse cx="19.5" cy="23" rx="6.5" ry="9" fill="#FFBE02"/>
<path fill-rule="evenodd" clip-rule="evenodd" d="M19.5672 5.6145H19.4329C18.2717 5.6145 17.3042 5.6145 16.537 5.71784C15.7258 5.82634 14.9934 6.06659 14.4057 6.65429C13.8167 7.24329 13.5765 7.97567 13.468 8.78554C13.3943 9.33709 13.3724 10.6533 13.3672 11.7822C10.7555 11.8688 9.18608 12.1736 8.09721 13.2638C6.58337 14.7763 6.58337 17.2124 6.58337 22.0833C6.58337 26.9541 6.58337 29.3902 8.09721 30.9028C9.60975 32.4166 12.0458 32.4166 16.9167 32.4166H22.0834C26.9542 32.4166 29.3903 32.4166 30.9029 30.9028C32.4167 29.3902 32.4167 26.9541 32.4167 22.0833C32.4167 17.2124 32.4167 14.7763 30.9029 13.2638C29.814 12.1736 28.2446 11.8688 25.6329 11.7835C25.6277 10.6533 25.607 9.33709 25.5321 8.78684C25.4236 7.97567 25.1834 7.24329 24.5944 6.65559C24.0067 6.06659 23.2743 5.82634 22.4631 5.71784C21.6959 5.6145 20.7271 5.6145 19.5672 5.6145ZM23.6954 11.7525C23.6889 10.6585 23.6708 9.48175 23.6127 9.04388C23.5313 8.44842 23.3931 8.19267 23.2252 8.02475C23.0573 7.85684 22.8015 7.71863 22.2048 7.63725C21.5822 7.55459 20.7452 7.552 19.5 7.552C18.2549 7.552 17.4179 7.55459 16.794 7.63854C16.1985 7.71863 15.9428 7.85684 15.7749 8.02604C15.607 8.19396 15.4687 8.44842 15.3874 9.04388C15.3292 9.48304 15.3099 10.6585 15.3047 11.7525C15.8097 11.7499 16.3484 11.7499 16.9167 11.7499H22.0834C22.653 11.7499 23.1903 11.7499 23.6954 11.7525ZM19.5 15.9478C19.757 15.9478 20.0034 16.0499 20.185 16.2316C20.3667 16.4133 20.4688 16.6597 20.4688 16.9166V16.9295C21.8754 17.2834 23.0521 18.393 23.0521 19.93C23.0521 20.187 22.9501 20.4334 22.7684 20.6151C22.5867 20.7967 22.3403 20.8988 22.0834 20.8988C21.8264 20.8988 21.58 20.7967 21.3984 20.6151C21.2167 20.4334 21.1146 20.187 21.1146 19.93C21.1146 19.434 20.5644 18.7469 19.5 18.7469C18.4357 18.7469 17.8855 19.434 17.8855 19.93C17.8855 20.426 18.4357 21.1145 19.5 21.1145C21.289 21.1145 23.0521 22.3545 23.0521 24.2365C23.0521 25.7735 21.8754 26.8818 20.4688 27.237V27.2499C20.4688 27.5068 20.3667 27.7533 20.185 27.9349C20.0034 28.1166 19.757 28.2187 19.5 28.2187C19.2431 28.2187 18.9967 28.1166 18.815 27.9349C18.6334 27.7533 18.5313 27.5068 18.5313 27.2499V27.237C17.1247 26.8831 15.948 25.7735 15.948 24.2365C15.948 23.9795 16.05 23.7331 16.2317 23.5515C16.4134 23.3698 16.6598 23.2677 16.9167 23.2677C17.1736 23.2677 17.42 23.3698 17.6017 23.5515C17.7834 23.7331 17.8855 23.9795 17.8855 24.2365C17.8855 24.7325 18.4357 25.4196 19.5 25.4196C20.5644 25.4196 21.1146 24.7325 21.1146 24.2365C21.1146 23.7405 20.5644 23.052 19.5 23.052C17.7111 23.052 15.948 21.812 15.948 19.93C15.948 18.393 17.1247 17.2834 18.5313 16.9295V16.9166C18.5313 16.6597 18.6334 16.4133 18.815 16.2316C18.9967 16.0499 19.2431 15.9478 19.5 15.9478Z" fill="#F9FBFF"/>
<circle cx="30.5" cy="29.5" r="4.5" fill="#FFBE02"/>
<path d="M28.5 29.5H32.5" stroke="white" stroke-width="1.2" stroke-linecap="round"/>
<path d="M30.5 31.5V27.5" stroke="white" stroke-width="1.2" stroke-linecap="round"/>
</svg>
