<svg width="14" height="14" viewBox="0 0 14 14" fill="none" xmlns="http://www.w3.org/2000/svg">
<path d="M5.83335 3.50002H8.16669C8.16669 3.1906 8.04377 2.89385 7.82498 2.67506C7.60619 2.45627 7.30944 2.33335 7.00002 2.33335C6.6906 2.33335 6.39386 2.45627 6.17506 2.67506C5.95627 2.89385 5.83335 3.1906 5.83335 3.50002ZM4.66669 3.50002C4.66669 2.88118 4.91252 2.28769 5.3501 1.8501C5.78769 1.41252 6.38118 1.16669 7.00002 1.16669C7.61886 1.16669 8.21235 1.41252 8.64994 1.8501C9.08752 2.28769 9.33335 2.88118 9.33335 3.50002H12.25C12.4047 3.50002 12.5531 3.56148 12.6625 3.67087C12.7719 3.78027 12.8334 3.92864 12.8334 4.08335C12.8334 4.23806 12.7719 4.38644 12.6625 4.49583C12.5531 4.60523 12.4047 4.66669 12.25 4.66669H11.7355L11.2187 10.6984C11.169 11.2808 10.9025 11.8234 10.4719 12.2187C10.0414 12.6141 9.47807 12.8334 8.89352 12.8334H5.10652C4.52197 12.8334 3.95868 12.6141 3.52811 12.2187C3.09753 11.8234 2.83104 11.2808 2.78135 10.6984L2.26452 4.66669H1.75002C1.59531 4.66669 1.44694 4.60523 1.33754 4.49583C1.22815 4.38644 1.16669 4.23806 1.16669 4.08335C1.16669 3.92864 1.22815 3.78027 1.33754 3.67087C1.44694 3.56148 1.59531 3.50002 1.75002 3.50002H4.66669ZM8.75002 7.00002C8.75002 6.84531 8.68856 6.69694 8.57917 6.58754C8.46977 6.47815 8.3214 6.41669 8.16669 6.41669C8.01198 6.41669 7.8636 6.47815 7.75421 6.58754C7.64481 6.69694 7.58335 6.84531 7.58335 7.00002V9.33335C7.58335 9.48806 7.64481 9.63644 7.75421 9.74583C7.8636 9.85523 8.01198 9.91669 8.16669 9.91669C8.3214 9.91669 8.46977 9.85523 8.57917 9.74583C8.68856 9.63644 8.75002 9.48806 8.75002 9.33335V7.00002ZM5.83335 6.41669C5.98806 6.41669 6.13644 6.47815 6.24583 6.58754C6.35523 6.69694 6.41669 6.84531 6.41669 7.00002V9.33335C6.41669 9.48806 6.35523 9.63644 6.24583 9.74583C6.13644 9.85523 5.98806 9.91669 5.83335 9.91669C5.67864 9.91669 5.53027 9.85523 5.42087 9.74583C5.31148 9.63644 5.25002 9.48806 5.25002 9.33335V7.00002C5.25002 6.84531 5.31148 6.69694 5.42087 6.58754C5.53027 6.47815 5.67864 6.41669 5.83335 6.41669ZM3.94335 10.5992C3.96821 10.8905 4.10154 11.1619 4.31695 11.3596C4.53236 11.5573 4.81414 11.6669 5.10652 11.6667H8.89352C9.1857 11.6666 9.46719 11.5568 9.68236 11.3592C9.89752 11.1615 10.0307 10.8903 10.0555 10.5992L10.5642 4.66669H3.43585L3.94335 10.5992Z" fill="white"/>
</svg>
