<svg width="14" height="14" viewBox="0 0 14 14" fill="none" xmlns="http://www.w3.org/2000/svg">
<path d="M5.83329 3.50002H8.16663C8.16663 3.1906 8.04371 2.89385 7.82492 2.67506C7.60612 2.45627 7.30938 2.33335 6.99996 2.33335C6.69054 2.33335 6.39379 2.45627 6.175 2.67506C5.95621 2.89385 5.83329 3.1906 5.83329 3.50002ZM4.66663 3.50002C4.66663 2.88118 4.91246 2.28769 5.35004 1.8501C5.78763 1.41252 6.38112 1.16669 6.99996 1.16669C7.6188 1.16669 8.21229 1.41252 8.64988 1.8501C9.08746 2.28769 9.33329 2.88118 9.33329 3.50002H12.25C12.4047 3.50002 12.553 3.56148 12.6624 3.67087C12.7718 3.78027 12.8333 3.92864 12.8333 4.08335C12.8333 4.23806 12.7718 4.38644 12.6624 4.49583C12.553 4.60523 12.4047 4.66669 12.25 4.66669H11.7355L11.2186 10.6984C11.1689 11.2808 10.9024 11.8234 10.4719 12.2187C10.0413 12.6141 9.47801 12.8334 8.89346 12.8334H5.10646C4.52191 12.8334 3.95862 12.6141 3.52805 12.2187C3.09747 11.8234 2.83098 11.2808 2.78129 10.6984L2.26446 4.66669H1.74996C1.59525 4.66669 1.44688 4.60523 1.33748 4.49583C1.22808 4.38644 1.16663 4.23806 1.16663 4.08335C1.16663 3.92864 1.22808 3.78027 1.33748 3.67087C1.44688 3.56148 1.59525 3.50002 1.74996 3.50002H4.66663ZM8.74996 7.00002C8.74996 6.84531 8.6885 6.69694 8.5791 6.58754C8.46971 6.47815 8.32134 6.41669 8.16663 6.41669C8.01192 6.41669 7.86354 6.47815 7.75415 6.58754C7.64475 6.69694 7.58329 6.84531 7.58329 7.00002V9.33335C7.58329 9.48806 7.64475 9.63644 7.75415 9.74583C7.86354 9.85523 8.01192 9.91669 8.16663 9.91669C8.32134 9.91669 8.46971 9.85523 8.5791 9.74583C8.6885 9.63644 8.74996 9.48806 8.74996 9.33335V7.00002ZM5.83329 6.41669C5.988 6.41669 6.13637 6.47815 6.24577 6.58754C6.35517 6.69694 6.41663 6.84531 6.41663 7.00002V9.33335C6.41663 9.48806 6.35517 9.63644 6.24577 9.74583C6.13637 9.85523 5.988 9.91669 5.83329 9.91669C5.67858 9.91669 5.53021 9.85523 5.42081 9.74583C5.31142 9.63644 5.24996 9.48806 5.24996 9.33335V7.00002C5.24996 6.84531 5.31142 6.69694 5.42081 6.58754C5.53021 6.47815 5.67858 6.41669 5.83329 6.41669ZM3.94329 10.5992C3.96814 10.8905 4.10147 11.1619 4.31688 11.3596C4.53229 11.5573 4.81408 11.6669 5.10646 11.6667H8.89346C9.18563 11.6666 9.46713 11.5568 9.6823 11.3592C9.89746 11.1615 10.0306 10.8903 10.0555 10.5992L10.5641 4.66669H3.43579L3.94329 10.5992Z" fill="white"/>
</svg>
