<svg width="213" height="150" viewBox="0 0 213 150" fill="none" xmlns="http://www.w3.org/2000/svg">
<g clip-path="url(#clip0_1763_45858)">
<path d="M108.707 149.682C115.108 149.682 120.298 144.492 120.298 138.091C120.298 131.689 115.108 126.499 108.707 126.499C102.305 126.499 97.1151 131.689 97.1151 138.091C97.1151 144.492 102.305 149.682 108.707 149.682Z" fill="#90D4EC"/>
<path d="M177.955 149.031C184.44 147.083 191.334 145.053 196.477 140.423C201.073 136.285 204.176 129.968 202.272 123.763C200.372 117.571 194.681 113.443 188.805 111.389C185.472 110.225 181.986 109.578 178.501 109.071C174.712 108.519 170.907 108.067 167.103 107.632C151.702 105.87 136.243 104.794 120.726 104.404C113.069 104.211 105.414 104.215 97.7565 104.327C90.9176 104.426 83.715 104.423 77.3707 101.517C72.4371 99.2565 67.9594 95.1443 66.5847 89.7404C64.9979 83.5025 67.9248 77.15 72.1234 72.6323C74.3366 70.251 76.9232 68.2467 79.5915 66.4038C82.4862 64.4044 85.4818 62.5467 88.5424 60.8126C94.5702 57.3988 100.872 54.4935 107.383 52.1269C110.595 50.959 113.854 49.9515 117.142 49.022C119.918 48.2371 122.703 47.4511 125.386 46.3818C130.573 44.3145 135.506 40.8128 136.825 35.0721C138.075 29.6313 135.967 23.7248 132.273 19.6829C127.998 15.0067 121.553 12.9568 115.374 12.6252C108.437 12.2528 101.66 13.9889 95.1402 16.1923C88.1861 18.5424 81.3819 21.2445 74.2809 23.148C67.2392 25.0338 60.0614 26.368 52.8124 27.1387C49.2638 27.5166 45.608 27.9432 42.0383 27.6539C39.0465 27.4115 36.0701 26.5316 33.8652 24.4084C31.9746 22.5878 30.8484 20.0858 31.2356 17.4453C31.3059 16.9657 32.0345 17.1696 31.9646 17.6463C31.4933 20.8605 33.6781 23.8222 36.3704 25.3394C39.482 27.0928 43.2684 27.0952 46.7327 26.8947C54.2443 26.441 61.705 25.3625 69.0375 23.6703C76.2425 22.0246 83.1902 19.6721 90.13 17.1591C96.7211 14.7724 103.459 12.4429 110.501 11.9259C116.611 11.4774 123.038 12.3675 128.361 15.5604C133.038 18.3666 136.478 23.0464 137.574 28.4165C138.646 33.6641 137.162 38.9459 133.19 42.6079C129.077 46.3994 123.438 48.0204 118.182 49.5133C111.516 51.4069 104.994 53.6203 98.68 56.4942C92.2803 59.3991 86.1427 62.8497 80.3351 66.8077C74.7293 70.6385 69.197 75.4586 67.424 82.2928C66.5981 85.4762 66.7506 88.8526 68.1325 91.8595C69.3612 94.5331 71.3848 96.782 73.7422 98.5167C79.3668 102.655 86.4558 103.505 93.2498 103.59C100.88 103.685 108.511 103.427 116.144 103.552C131.7 103.808 147.225 104.755 162.717 106.393C166.599 106.804 170.476 107.258 174.348 107.756C177.831 108.203 181.326 108.648 184.75 109.443C190.839 110.856 196.763 113.573 200.548 118.735C202.227 120.973 203.268 123.625 203.558 126.408C203.823 129.311 203.112 132.221 201.799 134.804C198.893 140.522 193.45 144.159 187.669 146.548C184.573 147.828 181.362 148.797 178.156 149.76C177.689 149.9 177.49 149.171 177.955 149.031Z" fill="#F2F2F2"/>
<path d="M31.7238 23.5611C35.0639 23.5611 37.7715 20.8534 37.7715 17.5133C37.7715 14.1733 35.0639 11.4656 31.7238 11.4656C28.3837 11.4656 25.676 14.1733 25.676 17.5133C25.676 20.8534 28.3837 23.5611 31.7238 23.5611Z" fill="#F2F2F2"/>
<path d="M73.6801 35.0267C77.0202 35.0267 79.7278 32.319 79.7278 28.9789C79.7278 25.6388 77.0202 22.9312 73.6801 22.9312C70.34 22.9312 67.6323 25.6388 67.6323 28.9789C67.6323 32.319 70.34 35.0267 73.6801 35.0267Z" fill="#F2F2F2"/>
<path d="M109.211 12.0955C112.551 12.0955 115.258 9.38785 115.258 6.04776C115.258 2.70768 112.551 0 109.211 0C105.871 0 103.163 2.70768 103.163 6.04776C103.163 9.38785 105.871 12.0955 109.211 12.0955Z" fill="#F2F2F2"/>
<path d="M131.386 37.7985C134.726 37.7985 137.434 35.0909 137.434 31.7508C137.434 28.4107 134.726 25.703 131.386 25.703C128.046 25.703 125.338 28.4107 125.338 31.7508C125.338 35.0909 128.046 37.7985 131.386 37.7985Z" fill="#F2F2F2"/>
<path d="M101.399 67.5334C104.739 67.5334 107.447 64.8257 107.447 61.4856C107.447 58.1455 104.739 55.4379 101.399 55.4379C98.0589 55.4379 95.3512 58.1455 95.3512 61.4856C95.3512 64.8257 98.0589 67.5334 101.399 67.5334Z" fill="#F2F2F2"/>
<path d="M63.3485 81.8968C66.6886 81.8968 69.3963 79.1891 69.3963 75.849C69.3963 72.5089 66.6886 69.8013 63.3485 69.8013C60.0085 69.8013 57.3008 72.5089 57.3008 75.849C57.3008 79.1891 60.0085 81.8968 63.3485 81.8968Z" fill="#F2F2F2"/>
<path d="M103.667 104.324C107.007 104.324 109.715 101.616 109.715 98.2762C109.715 94.9361 107.007 92.2284 103.667 92.2284C100.327 92.2284 97.6191 94.9361 97.6191 98.2762C97.6191 101.616 100.327 104.324 103.667 104.324Z" fill="#F2F2F2"/>
<path d="M147.009 116.923C150.349 116.923 153.057 114.216 153.057 110.876C153.057 107.536 150.349 104.828 147.009 104.828C143.669 104.828 140.961 107.536 140.961 110.876C140.961 114.216 143.669 116.923 147.009 116.923Z" fill="#F2F2F2"/>
<path d="M197.659 114.152C200.999 114.152 203.707 111.444 203.707 108.104C203.707 104.764 200.999 102.056 197.659 102.056C194.319 102.056 191.611 104.764 191.611 108.104C191.611 111.444 194.319 114.152 197.659 114.152Z" fill="#F2F2F2"/>
<path d="M107.465 17.1361C89.349 17.2641 74.5158 31.9859 74.2585 50.1006C74.2561 50.2678 74.255 51.4438 74.2551 52.9819C74.2553 55.237 75.1511 57.3998 76.7457 58.9945C78.3404 60.5892 80.5031 61.4853 82.7583 61.4855C83.8762 61.4853 84.9831 61.2648 86.0158 60.8365C87.0485 60.4083 87.9866 59.7809 88.7767 58.9899C89.5667 58.199 90.1932 57.2602 90.6203 56.227C91.0474 55.1939 91.2667 54.0867 91.2657 52.9688C91.2649 51.9225 91.2644 51.1984 91.2644 51.1539C91.2638 48.3543 91.992 45.6028 93.3773 43.17C94.7627 40.7372 96.7575 38.7069 99.1655 37.2789C101.574 35.8509 104.312 35.0743 107.111 35.0255C109.91 34.9768 112.674 35.6576 115.13 37.0009C117.586 38.3442 119.651 40.3037 121.12 42.6868C122.589 45.0699 123.413 47.7944 123.51 50.5924C123.607 53.3903 122.973 56.1652 121.673 58.6443C120.372 61.1233 118.448 63.221 116.09 64.731L116.093 64.7346C116.093 64.7346 103.991 72.526 100.301 83.2144L100.304 83.2151C99.6553 85.4047 99.3266 87.6767 99.328 89.9604C99.328 90.8992 99.3833 99.113 99.49 105.78C99.5273 108.08 100.467 110.273 102.107 111.887C103.748 113.5 105.956 114.404 108.257 114.403C109.413 114.403 110.557 114.175 111.625 113.731C112.692 113.287 113.661 112.636 114.476 111.816C115.291 110.996 115.935 110.023 116.373 108.953C116.81 107.883 117.032 106.737 117.024 105.581C116.987 99.4756 116.967 92.3663 116.967 91.8503C116.967 85.2873 123.299 78.7482 128.499 74.4838C134.488 69.5733 138.798 62.8815 140.529 55.3328C140.912 53.7787 141.123 52.1872 141.158 50.5869C141.158 46.1737 140.285 41.804 138.589 37.7297C136.893 33.6555 134.407 29.9571 131.275 26.8477C128.143 23.7384 124.427 21.2795 120.34 19.6127C116.254 17.9459 111.878 17.1042 107.465 17.1361Z" fill="#90D4EC"/>
<path d="M212.55 150H0.300027C0.220602 150 0.144511 149.968 0.0884297 149.912C0.0323488 149.856 0.000854492 149.779 0.000854492 149.7C0.000854492 149.621 0.0323488 149.544 0.0884297 149.488C0.144511 149.432 0.220602 149.4 0.300027 149.4H212.55C212.629 149.4 212.706 149.432 212.762 149.488C212.818 149.544 212.85 149.62 212.85 149.7C212.85 149.78 212.818 149.856 212.762 149.912C212.706 149.968 212.629 150 212.55 150Z" fill="#3F3D56"/>
<path d="M158.363 68.7923C162.538 68.7923 165.923 65.4077 165.923 61.2326C165.923 57.0574 162.538 53.6729 158.363 53.6729C154.188 53.6729 150.803 57.0574 150.803 61.2326C150.803 65.4077 154.188 68.7923 158.363 68.7923Z" fill="#2F2E41"/>
<path d="M144.393 146.691H141.304L139.834 134.775H144.394L144.393 146.691Z" fill="#FFB8B8"/>
<path d="M139.097 145.808H145.055V149.559H135.346C135.346 149.067 135.443 148.579 135.632 148.124C135.82 147.669 136.096 147.255 136.445 146.907C136.793 146.558 137.207 146.282 137.662 146.093C138.117 145.905 138.605 145.808 139.097 145.808Z" fill="#2F2E41"/>
<path d="M168.332 146.691H165.243L163.773 134.775H168.333L168.332 146.691Z" fill="#FFB8B8"/>
<path d="M163.036 145.808H168.995V149.559H159.285C159.285 149.067 159.382 148.579 159.571 148.124C159.759 147.669 160.036 147.255 160.384 146.907C160.732 146.558 161.146 146.282 161.601 146.093C162.056 145.905 162.544 145.808 163.036 145.808Z" fill="#2F2E41"/>
<path d="M157.214 68.8364C160.632 68.8364 163.403 66.0654 163.403 62.6473C163.403 59.2291 160.632 56.4581 157.214 56.4581C153.796 56.4581 151.025 59.2291 151.025 62.6473C151.025 66.0654 153.796 68.8364 157.214 68.8364Z" fill="#FFB8B8"/>
<path d="M160.903 88.8027L163.672 82.44C164.345 80.9474 164.538 79.2828 164.224 77.6759C163.91 76.0691 163.106 74.5992 161.921 73.4691C161.678 73.2286 161.419 73.0039 161.147 72.7963C159.781 71.7274 158.097 71.1448 156.362 71.1407C155.196 71.1453 154.044 71.4014 152.985 71.8917C152.895 71.932 152.807 71.9748 152.716 72.0177C152.542 72.1008 152.371 72.1915 152.204 72.2848C151.119 72.9077 150.196 73.7768 149.509 74.822C148.822 75.8673 148.39 77.0594 148.248 78.3023L147.026 88.5432C146.718 89.347 135.752 118.376 139.587 140.539C139.628 140.775 139.743 140.993 139.917 141.159C140.09 141.326 140.312 141.432 140.55 141.464L144.438 141.993C144.722 142.032 145.01 141.961 145.244 141.796C145.478 141.631 145.641 141.384 145.7 141.103L152.224 110.005C152.265 109.812 152.369 109.638 152.521 109.511C152.672 109.384 152.861 109.311 153.058 109.305C153.256 109.298 153.45 109.358 153.609 109.474C153.769 109.591 153.884 109.757 153.938 109.947L163.156 142.65C163.221 142.888 163.363 143.098 163.559 143.247C163.756 143.396 163.995 143.477 164.242 143.477C164.315 143.477 164.389 143.47 164.461 143.457L169.211 142.542C169.487 142.491 169.734 142.338 169.903 142.113C170.073 141.889 170.152 141.61 170.126 141.33C169.428 133.546 165.718 94.5557 160.903 88.8027Z" fill="#2F2E41"/>
<path d="M133.162 67.7979C133.119 68.1658 133.157 68.5387 133.274 68.8903C133.39 69.2418 133.583 69.5635 133.837 69.8327C134.092 70.1019 134.402 70.3119 134.747 70.4481C135.091 70.5843 135.461 70.6433 135.831 70.621L139.291 78.9348L141.908 75.0555L138.221 67.7554C138.142 67.1367 137.84 66.5683 137.37 66.158C136.9 65.7478 136.296 65.524 135.672 65.5293C135.049 65.5345 134.449 65.7683 133.986 66.1864C133.523 66.6046 133.23 67.1779 133.162 67.7979Z" fill="#FFB8B8"/>
<path d="M156.871 97.174C157.239 97.1301 157.592 97.006 157.907 96.8105C158.222 96.6151 158.49 96.353 158.692 96.0428C158.895 95.7325 159.027 95.3817 159.079 95.0149C159.131 94.6482 159.102 94.2744 158.994 93.92L166.273 88.6186L161.891 86.9775L155.651 92.2635C155.067 92.4842 154.585 92.9112 154.296 93.4636C154.006 94.016 153.929 94.6555 154.08 95.2608C154.23 95.866 154.597 96.3951 155.112 96.7478C155.626 97.1004 156.252 97.2521 156.871 97.174Z" fill="#FFB8B8"/>
<path d="M145.005 84.4774C144.726 84.4771 144.448 84.4497 144.174 84.3955C143.512 84.2694 142.891 83.9825 142.366 83.5599C141.841 83.1373 141.428 82.5921 141.163 81.9723L136.316 76.0623C136.214 75.9373 136.139 75.7919 136.098 75.6358C136.056 75.4797 136.048 75.3165 136.075 75.1571C136.101 74.9977 136.161 74.8458 136.251 74.7116C136.341 74.5773 136.459 74.4639 136.596 74.3788L140.045 72.2443C140.172 72.1655 140.314 72.1127 140.461 72.0889C140.609 72.0651 140.76 72.0708 140.906 72.1057C141.052 72.1406 141.189 72.204 141.31 72.2923C141.431 72.3805 141.533 72.4918 141.611 72.6198L145.027 78.2478L151.569 73.413C152.09 73.1398 152.692 73.0633 153.264 73.1972C153.837 73.3311 154.342 73.6666 154.688 74.1423C155.034 74.6181 155.197 75.2024 155.148 75.7884C155.098 76.3745 154.839 76.9232 154.419 77.3343L147.889 83.2905C147.122 84.0511 146.085 84.4777 145.005 84.4774Z" fill="#2F2E41"/>
<path d="M162.682 93.3657C162.673 93.3657 162.664 93.3657 162.656 93.3654C162.497 93.3616 162.34 93.3243 162.196 93.2562C162.053 93.188 161.925 93.0904 161.821 92.9697L158.755 89.3931C158.651 89.2713 158.574 89.1288 158.528 88.9748C158.483 88.8209 158.471 88.6591 158.493 88.5002C158.515 88.3413 158.57 88.1888 158.656 88.0529C158.741 87.9169 158.854 87.8006 158.987 87.7116L164.728 83.8845L159.527 77.632C159.225 77.1277 159.114 76.5313 159.215 75.9519C159.316 75.3725 159.622 74.8487 160.077 74.4762C160.532 74.1037 161.106 73.9075 161.694 73.9232C162.282 73.939 162.844 74.1658 163.279 74.5621L169.6 80.7391C170.097 81.1935 170.477 81.7619 170.706 82.3955C170.936 83.029 171.008 83.7087 170.917 84.3763C170.826 85.044 170.574 85.6795 170.183 86.2284C169.793 86.7773 169.275 87.2232 168.674 87.5278L163.507 93.0096C163.401 93.122 163.273 93.2115 163.131 93.2727C162.99 93.334 162.837 93.3656 162.682 93.3657Z" fill="#2F2E41"/>
<path d="M155.64 80.1869C155.591 80.1869 155.542 80.1838 155.493 80.1776C155.28 80.1516 155.078 80.0649 154.912 79.9279C154.747 79.7908 154.624 79.6091 154.558 79.4042L152.254 72.3411C152.197 72.1626 152.206 71.9691 152.279 71.7966C152.353 71.6241 152.487 71.4841 152.656 71.4026L152.731 71.3673C152.799 71.335 152.866 71.3031 152.934 71.2726C154.009 70.7744 155.178 70.5146 156.362 70.5109C157.899 70.5137 159.402 70.9653 160.687 71.8103C160.859 71.9249 160.979 72.1025 161.022 72.3049C161.064 72.5073 161.025 72.7183 160.914 72.8925L156.592 79.6629C156.491 79.8236 156.35 79.956 156.184 80.0477C156.017 80.1393 155.83 80.1872 155.64 80.1869Z" fill="#E6E6E6"/>
<path d="M164.323 57.8577C165.689 57.8577 166.797 56.7502 166.797 55.384C166.797 54.0178 165.689 52.9103 164.323 52.9103C162.957 52.9103 161.849 54.0178 161.849 55.384C161.849 56.7502 162.957 57.8577 164.323 57.8577Z" fill="#2F2E41"/>
<path d="M155.843 52.6649C154.105 52.6649 152.439 53.3552 151.21 54.5839C149.982 55.8126 149.291 57.479 149.291 59.2166V61.9886H152.701L154.331 59.2167L154.82 61.9886H165.167L162.395 59.2166C162.395 57.479 161.704 55.8126 160.476 54.5839C159.247 53.3552 157.581 52.6649 155.843 52.6649Z" fill="#2F2E41"/>
<path d="M165.594 53.6895C165.868 52.8341 166.434 52.1026 167.194 51.6235C167.953 51.1444 168.858 50.9484 169.747 51.0699C171.324 51.3335 172.57 52.6007 173.313 54.016C174.056 55.4313 174.398 57.0153 174.898 58.5336C175.397 60.052 176.105 61.5786 177.365 62.5614C178.626 63.5443 180.56 63.8109 181.798 62.7998C181.656 63.8536 181.187 64.8361 180.457 65.6086C179.726 66.3811 178.772 66.9044 177.727 67.1045C176.683 67.3046 175.603 67.1713 174.638 66.7236C173.674 66.2758 172.875 65.5362 172.354 64.6094C171.701 63.4473 171.532 62.0853 171.339 60.7663C171.145 59.4474 170.893 58.0827 170.113 57.0015C169.334 55.9203 167.874 55.2141 166.635 55.7066L165.594 53.6895Z" fill="#2F2E41"/>
<path d="M85.1592 57.4634C82.904 57.4632 80.7413 56.5672 79.1467 54.9725C77.5521 53.3778 76.6562 51.215 76.656 48.9598C76.6559 47.4217 76.657 46.2457 76.6593 46.0785C76.731 40.8102 78.0578 35.635 80.5296 30.9821C76.4684 36.5417 74.2354 43.226 74.1394 50.1103C74.1371 50.2776 74.136 51.4535 74.1361 52.9916C74.1363 55.2468 75.0322 57.4096 76.6268 59.0043C78.2214 60.599 80.3841 61.495 82.6393 61.4953C84.4924 61.4946 86.2947 60.889 87.7723 59.7706C89.2499 58.6522 90.3221 57.082 90.8259 55.2987C89.2689 56.6949 87.2505 57.466 85.1592 57.4634Z" fill="#3F3D56"/>
<path d="M108.041 35.0542C110.649 35.1787 113.186 35.9341 115.437 37.2555C117.688 38.577 119.585 40.425 120.964 42.6408C122.344 44.8567 123.164 47.3742 123.357 49.9772C123.549 52.5803 123.106 55.191 122.067 57.5854C123.57 55.8201 124.675 53.7514 125.306 51.5205C125.937 49.2895 126.08 46.9487 125.724 44.6576C125.369 42.3665 124.523 40.179 123.246 38.2442C121.968 36.3095 120.289 34.6729 118.321 33.4462C116.354 32.2194 114.145 31.4313 111.845 31.1355C109.546 30.8398 107.21 31.0434 104.996 31.7324C102.782 32.4214 100.743 33.5797 99.0173 35.1282C97.2918 36.6768 95.9204 38.5792 94.9967 40.7057C96.5931 38.8277 98.5996 37.3415 100.861 36.3616C103.123 35.3818 105.579 34.9344 108.041 35.0542Z" fill="#3F3D56"/>
<path d="M110.658 110.381C108.357 110.382 106.148 109.478 104.508 107.865C102.868 106.251 101.928 104.058 101.891 101.758C101.784 95.0909 101.729 86.8771 101.729 85.9383C101.727 83.6546 102.056 81.3827 102.705 79.1931L102.702 79.1923C103.085 78.0933 103.548 77.0236 104.086 75.9918C102.433 78.1953 101.117 80.6328 100.182 83.2242L100.185 83.2249C99.5363 85.4145 99.2075 87.6865 99.209 89.9702C99.209 90.9089 99.2642 99.1228 99.3709 105.79C99.4082 108.09 100.348 110.283 101.988 111.896C103.629 113.51 105.837 114.414 108.138 114.413C110.035 114.413 111.88 113.798 113.398 112.659C114.915 111.521 116.023 109.922 116.555 108.101C114.943 109.571 112.839 110.384 110.658 110.381Z" fill="#3F3D56"/>
<path d="M31.8871 146.806L34.9763 146.805L36.4461 134.889L31.8864 134.89L31.8871 146.806Z" fill="#FFB8B8"/>
<path d="M40.9344 149.674L31.2251 149.674L31.2249 145.923L37.1829 145.923C38.1779 145.923 39.132 146.318 39.8356 147.021C40.5391 147.725 40.9344 148.679 40.9344 149.674Z" fill="#2F2E41"/>
<path d="M20.7995 146.806L23.8886 146.805L25.3585 134.889L20.7987 134.89L20.7995 146.806Z" fill="#FFB8B8"/>
<path d="M29.8469 149.674L20.1376 149.674L20.1374 145.923L26.0954 145.923C27.0903 145.923 28.0445 146.318 28.7481 147.021C29.4516 147.725 29.8469 148.679 29.8469 149.674Z" fill="#2F2E41"/>
<path d="M23.4992 143.141L20.4816 142.982C20.326 142.974 20.1735 142.935 20.0331 142.867C19.8927 142.8 19.7671 142.705 19.6635 142.589C19.5599 142.472 19.4805 142.337 19.4298 142.189C19.3791 142.042 19.3582 141.886 19.3682 141.73L22.9748 101.799L39.5837 106.28L41.1839 105.844L36.1798 141.194C36.1372 141.46 36.0051 141.704 35.8055 141.884C35.6058 142.065 35.3504 142.172 35.0816 142.188L31.8287 142.34C31.666 142.349 31.5033 142.324 31.3507 142.267C31.1981 142.21 31.059 142.122 30.9423 142.008C30.8255 141.895 30.7335 141.758 30.6722 141.607C30.6109 141.456 30.5815 141.294 30.586 141.131L31.1754 119.915C31.1782 119.817 31.1441 119.721 31.0799 119.647C31.0156 119.573 30.926 119.525 30.8285 119.514C30.731 119.502 30.6328 119.528 30.5532 119.585C30.4736 119.643 30.4184 119.728 30.3985 119.824L24.7144 142.204C24.6607 142.469 24.5166 142.708 24.3067 142.879C24.0967 143.05 23.8339 143.143 23.563 143.143C23.5418 143.143 23.5206 143.142 23.4992 143.141Z" fill="#2F2E41"/>
<path d="M32.4417 69.1258C35.8599 69.1258 38.6308 66.3549 38.6308 62.9367C38.6308 59.5185 35.8599 56.7476 32.4417 56.7476C29.0235 56.7476 26.2526 59.5185 26.2526 62.9367C26.2526 66.3549 29.0235 69.1258 32.4417 69.1258Z" fill="#FFB8B8"/>
<path d="M22.1372 81.1201L22.8177 95.8029L23.0637 101.145C23.0735 101.377 23.1525 101.602 23.2905 101.789C23.4285 101.976 23.6193 102.118 23.8384 102.197L39.7985 107.978C39.9274 108.026 40.064 108.05 40.2015 108.049C40.3587 108.05 40.5145 108.019 40.6595 107.958C40.8044 107.897 40.9357 107.808 41.0454 107.695C41.1551 107.583 41.241 107.449 41.2979 107.303C41.3548 107.156 41.3816 107 41.3767 106.843L40.7224 80.4422C40.6794 78.2762 39.8821 76.1931 38.4679 74.5519C37.0537 72.9108 35.1112 71.8145 32.9753 71.452C32.8209 71.4284 32.6639 71.4048 32.5068 71.3839C31.1824 71.2195 29.838 71.3473 28.5683 71.7583C27.2986 72.1694 26.1343 72.8536 25.1575 73.763C24.146 74.6933 23.3512 75.8344 22.8293 77.1057C22.3074 78.377 22.0712 79.7474 22.1372 81.1201Z" fill="#CCCCCC"/>
<path d="M47.4226 105.049C47.0451 104.931 46.7002 104.728 46.4155 104.454C46.1307 104.179 45.914 103.843 45.7826 103.47C45.6511 103.097 45.6086 102.699 45.6585 102.307C45.7084 101.915 45.8492 101.54 46.0697 101.212L40.6575 94.0148L45.3279 93.7257L49.7514 100.604C50.225 100.97 50.5545 101.492 50.6822 102.076C50.8099 102.661 50.7277 103.272 50.4498 103.803C50.172 104.333 49.7163 104.748 49.1628 104.976C48.6093 105.204 47.9932 105.23 47.4226 105.049Z" fill="#FFB8B8"/>
<path d="M43.6172 99.9093C43.4738 99.8511 43.3434 99.765 43.2335 99.6561C43.1236 99.5471 43.0364 99.4175 42.9769 99.2746L34.823 79.8476C34.663 79.4673 34.5795 79.0591 34.5773 78.6465C34.5751 78.2338 34.6543 77.8248 34.8103 77.4428C34.9662 77.0608 35.196 76.7132 35.4863 76.42C35.7767 76.1268 36.122 75.8937 36.5025 75.734C36.8829 75.5743 37.2912 75.4911 37.7038 75.4893C38.1165 75.4874 38.5254 75.5669 38.9073 75.7232C39.2892 75.8795 39.6366 76.1095 39.9296 76.4C40.2225 76.6906 40.4554 77.0361 40.6148 77.4167L48.7687 96.844C48.8893 97.132 48.8906 97.4561 48.7725 97.7451C48.6543 98.0341 48.4264 98.2645 48.1386 98.3857L44.5187 99.9049C44.3762 99.9653 44.2231 99.9967 44.0684 99.9974C43.9136 99.9982 43.7603 99.9682 43.6172 99.9093Z" fill="#CCCCCC"/>
<path d="M30.4519 99.2241L38.2835 84.2284C38.4346 83.94 38.6938 83.7233 39.0044 83.6259C39.315 83.5284 39.6516 83.5581 39.9404 83.7085L51.308 89.6454C51.5964 89.7964 51.8131 90.0557 51.9106 90.3663C52.0081 90.6769 51.9784 91.0135 51.828 91.3022L43.9963 106.298C43.8453 106.586 43.586 106.803 43.2754 106.9C42.9648 106.998 42.6282 106.968 42.3395 106.818L30.9718 100.881C30.6835 100.73 30.4668 100.471 30.3693 100.16C30.2718 99.8494 30.3015 99.5128 30.4519 99.2241Z" fill="#3F3D56"/>
<path d="M35.7041 92.3729C35.5649 92.003 35.3411 91.6707 35.0507 91.4027C34.7602 91.1346 34.4112 90.9382 34.0313 90.829C33.6514 90.7198 33.2513 90.7009 32.8629 90.7738C32.4744 90.8467 32.1084 91.0094 31.794 91.249L24.2901 86.2711L24.2773 90.9505L31.4051 94.9601C31.7986 95.4113 32.3383 95.7094 32.9296 95.8024C33.521 95.8953 34.1261 95.7771 34.639 95.4684C35.1519 95.1598 35.5397 94.6804 35.7345 94.1144C35.9292 93.5483 35.9185 92.9318 35.7041 92.3729Z" fill="#FFB8B8"/>
<path d="M26.2166 93.4252L20.084 88.5674C19.4206 88.3446 18.8211 87.9642 18.3371 87.4587C17.853 86.9533 17.4989 86.3379 17.305 85.6655C17.1111 84.993 17.0833 84.2836 17.224 83.5981C17.3647 82.9125 17.6696 82.2713 18.1126 81.7296L23.6809 74.4321C24.0678 73.9592 24.612 73.6414 25.214 73.5368C25.8159 73.4321 26.4354 73.5476 26.9593 73.8621C27.4831 74.1766 27.8763 74.6691 28.0669 75.2496C28.2575 75.8301 28.2328 76.4598 27.9973 77.0236L23.5916 84.2305L30.0662 87.3015C30.2168 87.3729 30.3505 87.4754 30.4585 87.6023C30.5665 87.7292 30.6463 87.8776 30.6927 88.0377C30.7391 88.1977 30.751 88.3658 30.7276 88.5308C30.7043 88.6957 30.6462 88.8539 30.5571 88.9948L27.9436 93.1309C27.8552 93.2705 27.7385 93.39 27.6011 93.4817C27.4636 93.5733 27.3084 93.6351 27.1456 93.6629C27.1391 93.664 27.1326 93.6651 27.1261 93.666C26.9661 93.6902 26.8028 93.6813 26.6464 93.6399C26.49 93.5984 26.3437 93.5254 26.2166 93.4252Z" fill="#CCCCCC"/>
<path d="M27.765 67.081C27.7384 67.0033 27.73 66.9206 27.7404 66.8392C27.7507 66.7577 27.7796 66.6797 27.8247 66.6112C27.8699 66.5426 27.9301 66.4853 28.0009 66.4436C28.0716 66.4019 28.1509 66.377 28.2328 66.3707C28.4004 66.3798 28.5645 66.4228 28.715 66.497C28.8656 66.5713 28.9995 66.6753 29.1087 66.8028C29.3327 67.0611 29.5935 67.285 29.8826 67.4673C30.182 67.6182 30.5881 67.5967 30.7588 67.309C30.919 67.0388 30.8092 66.677 30.7122 66.3632C30.4653 65.5647 30.3271 64.7366 30.3015 63.9012C30.2735 62.9688 30.4051 61.9957 30.9213 61.2684C31.5875 60.3298 32.7788 59.9735 33.9062 59.9993C35.0336 60.0252 36.1427 60.3732 37.2595 60.5932C37.645 60.6691 38.0982 60.708 38.356 60.4092C38.6302 60.0915 38.5295 59.5773 38.4129 59.1483C38.1103 58.0351 37.7892 56.8842 37.0861 55.9852C36.3258 55.0511 35.2399 54.4397 34.0469 54.2742C32.9015 54.1323 31.7389 54.2643 30.6545 54.6593C28.8878 55.2162 27.3332 56.2992 26.1986 57.7635C25.029 59.3207 24.5237 61.2777 24.793 63.2065C25.0561 64.8864 25.9463 66.4042 27.2841 67.4537L27.765 67.081Z" fill="#2F2E41"/>
<path d="M106.153 146.855C104.506 146.138 103.049 145.048 101.896 143.671C100.742 142.294 99.9249 140.668 99.5077 138.921C99.0906 137.174 99.0852 135.354 99.4919 133.604C99.8986 131.855 100.706 130.224 101.851 128.84C100.524 129.81 99.4176 131.05 98.6061 132.48C97.7947 133.909 97.2966 135.495 97.1448 137.131C96.9931 138.768 97.1912 140.418 97.726 141.973C98.2607 143.527 99.12 144.95 100.247 146.146C101.373 147.343 102.742 148.287 104.261 148.914C105.78 149.542 107.415 149.839 109.058 149.786C110.701 149.734 112.314 149.332 113.79 148.608C115.265 147.885 116.57 146.855 117.618 145.589C115.984 146.783 114.066 147.528 112.054 147.75C110.043 147.972 108.008 147.664 106.153 146.855Z" fill="#3F3D56"/>
</g>
<defs>
<clipPath id="clip0_1763_45858">
<rect width="212.85" height="150" fill="white"/>
</clipPath>
</defs>
</svg>
