<svg width="134" height="120" viewBox="0 0 134 120" fill="none" xmlns="http://www.w3.org/2000/svg">
<g clip-path="url(#clip0_1775_45843)">
<path d="M73.5 50.5C73.5 50.5 71.6327 54 75 54C76.0251 54 80.1494 48.7454 81.6715 47C85.1493 43.0123 88.9999 36.463 88.9999 36.463L86.2448 33L81.2998 40.0606L73.5 50.5Z" fill="#FFB8B8"/>
<path d="M88.2097 116.51L84.8646 116.51L83.2729 103.606L88.2104 103.607L88.2097 116.51Z" fill="#FFB8B8"/>
<path d="M88.3277 120L78.0404 120V119.869C78.0404 118.808 78.4623 117.789 79.2132 117.038C79.9641 116.287 80.9826 115.865 82.0445 115.865H82.0447L83.9238 114.44L87.4299 115.866L88.3279 115.866L88.3277 120Z" fill="#2F2E41"/>
<path d="M124.195 112.336L121.201 113.83L114.015 102.995L118.433 100.791L124.195 112.336Z" fill="#FFB8B8"/>
<path d="M125.858 115.406L116.654 120L116.595 119.884C116.121 118.933 116.044 117.834 116.381 116.827C116.717 115.819 117.44 114.987 118.39 114.513L118.39 114.513L119.435 112.398L123.209 112.108L124.012 111.707L125.858 115.406Z" fill="#2F2E41"/>
<path d="M109.838 62.008C109.838 62.008 111.175 78.0827 111.462 81.5272C111.659 83.6864 112.141 85.8099 112.897 87.8421C112.897 87.8421 113.471 88.9903 113.471 90.1384L119.978 101.963C119.978 101.963 121.966 103.424 121.679 104.573C121.392 105.721 122.877 106.409 122.877 106.409L116.026 107.73C116.026 107.73 116.313 106.869 115.452 106.582C114.59 106.295 113.905 103.805 113.905 103.805L104.286 88.1291L97.3969 73.777C97.3969 73.777 93.3783 86.6939 92.5172 88.1291C92.5172 88.1291 89.3597 104.204 88.7856 105.639C88.2115 107.074 87.9245 107.074 88.2115 107.648C88.4986 108.222 88.4986 108.796 88.2115 109.083C87.9245 109.37 82.4707 109.083 82.4707 109.083L83.9059 88.7032L86.4893 64.3046L99.6932 60.286L109.838 62.008Z" fill="#2F2E41"/>
<path d="M96.9108 23.6339C93.5817 23.6339 90.8829 20.9351 90.8829 17.606C90.8829 14.2769 93.5817 11.5781 96.9108 11.5781C100.24 11.5781 102.939 14.2769 102.939 17.606C102.939 20.9351 100.24 23.6339 96.9108 23.6339Z" fill="#FFB8B8"/>
<path d="M85.9152 32.4429L93.0911 28.0953C93.0911 28.0953 93.29 25.3955 95.3345 25.2685C96.361 25.2047 97.9014 25.1072 100.213 24.9582C100.702 24.9267 101.031 27.5994 101.591 27.5631L109.166 29.5724L108.017 49.0913C108.017 49.0913 109.74 56.8415 109.166 58.2767C108.592 59.7119 110.601 60.286 110.027 60.573C109.453 60.8601 110.027 62.8694 110.027 62.8694C110.027 62.8694 98.8321 68.6102 86.4893 64.3046L87.6375 60.573C87.4812 60.0852 87.4519 59.5656 87.5524 59.0634C87.6528 58.5611 87.8797 58.0928 88.2116 57.7026C88.2116 57.7026 87.0634 55.9803 88.4986 54.5451C88.4986 54.5451 87.9245 51.9617 89.3598 50.8136L89.6468 46.795L88.7857 44.7857L85.9152 32.4429Z" fill="#E6E6E6"/>
<path d="M102.141 21.0495L102.31 20.6581C102.332 20.6075 104.463 15.568 102.574 12.4595C101.699 11.0205 100.109 10.208 97.8467 10.0449C94.3075 9.78897 91.8852 10.6285 90.6452 12.5385C90.4373 12.8622 90.3204 13.2359 90.3069 13.6204C90.2934 14.0049 90.3837 14.3859 90.5683 14.7234C90.753 15.0609 91.0252 15.3424 91.3563 15.5383C91.6874 15.7342 92.0651 15.8373 92.4499 15.8368H92.4974L93.1477 14.9924L93.1856 15.0745C93.421 15.5839 93.9617 15.8627 94.595 15.8017C94.7027 15.7939 94.7982 15.8869 94.8748 16.0859C94.9006 16.1729 94.9494 16.2514 95.0159 16.3131C95.0825 16.3748 95.1645 16.4175 95.2533 16.4366C95.7212 16.5277 96.3882 15.9383 96.6868 15.6445C96.6983 15.7121 96.7242 15.7765 96.7627 15.8332C96.8012 15.8899 96.8515 15.9377 96.9101 15.9734C97.2247 16.1549 97.7144 15.9178 97.8549 15.8423C98.9746 16.0801 99.6993 16.0165 100.01 15.6534C100.22 17.1427 100.672 19.8234 101.214 19.9719C101.27 19.985 101.33 19.9794 101.383 19.9562C101.436 19.9329 101.481 19.8931 101.509 19.8427C101.64 19.6734 101.757 19.589 101.829 19.6127C102.006 19.6687 102.11 20.2491 102.124 20.6236L102.141 21.0495Z" fill="#2F2E41"/>
<path d="M113.471 40.4801C113.471 40.4801 116.055 51.3877 112.897 51.3877C109.74 51.3877 102.277 39.0449 102.277 39.0449L104.86 35.8875L109.497 42.3251L109.74 39.0449L113.471 40.4801Z" fill="#FFB8B8"/>
<path d="M102.965 39.5191C101.577 39.5191 100.452 38.3939 100.452 37.0059C100.452 35.6179 101.577 34.4927 102.965 34.4927C104.353 34.4927 105.478 35.6179 105.478 37.0059C105.478 38.3939 104.353 39.5191 102.965 39.5191Z" fill="#FFB8B8"/>
<path d="M107.075 31.2948L108.797 29.5725C108.797 29.5725 112.242 31.5818 112.529 33.5911C112.816 35.6004 114.251 41.9153 114.251 41.9153L108.941 42.3459L107.218 39.7625L107.075 31.2948Z" fill="#E6E6E6"/>
<rect x="15" y="12" width="61" height="78" rx="2" fill="#E9F0FF"/>
<path d="M75.7681 13.9035C75.5355 13.3428 75.1461 12.8636 74.6481 12.5253C74.15 12.187 73.5651 12.0043 72.9659 12H17.0321C16.228 12.0004 15.4571 12.3249 14.8885 12.9021C14.32 13.4793 14.0004 14.2621 14 15.0784V86.9216C14.0004 87.7379 14.32 88.5206 14.8885 89.0979C15.4571 89.6751 16.228 89.9996 17.0321 90H72.9679C73.7718 89.9989 74.5423 89.6742 75.1107 89.0972C75.6791 88.5201 75.9989 87.7377 76 86.9216V15.0784C76.0013 14.6751 75.9232 14.2757 75.7702 13.9035H75.7681ZM75.3246 86.9216C75.3239 87.5565 75.0751 88.1652 74.633 88.6141C74.1908 89.0631 73.5913 89.3156 72.9659 89.3164H17.0321C16.4066 89.3163 15.8068 89.064 15.3644 88.615C14.9221 88.166 14.6735 87.557 14.6733 86.922V15.0788C14.6742 14.4439 14.923 13.8353 15.3651 13.3864C15.8073 12.9375 16.4067 12.6849 17.0321 12.684H72.9679C73.439 12.6858 73.8988 12.8301 74.2888 13.0984C74.6787 13.3667 74.9811 13.7469 75.1573 14.1905C75.1916 14.2789 75.2212 14.3691 75.246 14.4607C75.2995 14.6622 75.3266 14.8701 75.3266 15.0788L75.3246 86.9216Z" fill="#387BF7"/>
<path d="M64.6206 29H47.3794C47.0135 29 46.6627 28.8946 46.404 28.7071C46.1453 28.5196 46 28.2652 46 28C46 27.7348 46.1453 27.4804 46.404 27.2929C46.6627 27.1054 47.0135 27 47.3794 27H64.6206C64.9865 27 65.3373 27.1054 65.596 27.2929C65.8547 27.4804 66 27.7348 66 28C66 28.2652 65.8547 28.5196 65.596 28.7071C65.3373 28.8946 64.9865 29 64.6206 29Z" fill="#588DF0"/>
<path d="M64.6191 36H47.3809C47.1997 36.0002 47.0202 35.9744 46.8526 35.9243C46.6851 35.8741 46.5328 35.8005 46.4046 35.7076C46.2763 35.6147 46.1746 35.5044 46.1052 35.383C46.0357 35.2616 46 35.1314 46 35C46 34.8686 46.0357 34.7384 46.1052 34.617C46.1746 34.4956 46.2763 34.3853 46.4046 34.2924C46.5328 34.1995 46.6851 34.1259 46.8526 34.0757C47.0202 34.0256 47.1997 33.9998 47.3809 34H64.6191C64.8003 33.9998 64.9798 34.0256 65.1474 34.0757C65.3149 34.1259 65.4672 34.1995 65.5954 34.2924C65.7237 34.3853 65.8254 34.4956 65.8948 34.617C65.9643 34.7384 66 34.8686 66 35C66 35.1314 65.9643 35.2616 65.8948 35.383C65.8254 35.5044 65.7237 35.6147 65.5954 35.7076C65.4672 35.8005 65.3149 35.8741 65.1474 35.9243C64.9798 35.9744 64.8003 36.0002 64.6191 36Z" fill="#588DF0"/>
<path d="M38.5177 40H26.4823C26.0893 39.9996 25.7125 39.8448 25.4346 39.5696C25.1567 39.2944 25.0004 38.9213 25 38.5321V24.4679C25.0004 24.0787 25.1567 23.7056 25.4346 23.4304C25.7125 23.1552 26.0893 23.0004 26.4823 23H38.5177C38.9107 23.0004 39.2875 23.1552 39.5654 23.4304C39.8433 23.7056 39.9996 24.0787 40 24.4679V38.5321C39.9996 38.9213 39.8433 39.2944 39.5654 39.5696C39.2875 39.8448 38.9107 39.9996 38.5177 40Z" fill="#015AFF"/>
<path d="M64.6446 51H26.3554C25.9959 51 25.6512 50.842 25.397 50.5607C25.1428 50.2794 25 49.8978 25 49.5C25 49.1022 25.1428 48.7206 25.397 48.4393C25.6512 48.158 25.9959 48 26.3554 48H64.6446C65.0041 48 65.3488 48.158 65.603 48.4393C65.8572 48.7206 66 49.1022 66 49.5C66 49.8978 65.8572 50.2794 65.603 50.5607C65.3488 50.842 65.0041 51 64.6446 51Z" fill="#CCCCCC"/>
<path d="M64.6446 58H26.3554C25.9959 58 25.6512 57.842 25.397 57.5607C25.1428 57.2793 25 56.8978 25 56.5C25 56.1022 25.1428 55.7206 25.397 55.4393C25.6512 55.158 25.9959 55 26.3554 55H64.6446C65.0041 55 65.3488 55.158 65.603 55.4393C65.8572 55.7206 66 56.1022 66 56.5C66 56.8978 65.8572 57.2793 65.603 57.5607C65.3488 57.842 65.0041 58 64.6446 58Z" fill="#CCCCCC"/>
<path d="M64.6428 65H26.3536C25.9944 64.9995 25.6502 64.8412 25.3964 64.56C25.1426 64.2787 25 63.8975 25 63.5C25 63.1025 25.1426 62.7213 25.3964 62.44C25.6502 62.1588 25.9944 62.0005 26.3536 62H64.6428C64.8209 61.9997 64.9974 62.0383 65.162 62.1136C65.3267 62.1889 65.4763 62.2993 65.6024 62.4386C65.7284 62.5779 65.8284 62.7434 65.8966 62.9255C65.9649 63.1076 66 63.3028 66 63.5C66 63.6972 65.9649 63.8924 65.8966 64.0745C65.8284 64.2566 65.7284 64.422 65.6024 64.5614C65.4763 64.7007 65.3267 64.8111 65.162 64.8864C64.9974 64.9617 64.8209 65.0003 64.6428 65Z" fill="#CCCCCC"/>
<path d="M64.6446 72H26.3554C25.9959 72 25.6512 71.8946 25.397 71.7071C25.1428 71.5196 25 71.2652 25 71C25 70.7348 25.1428 70.4804 25.397 70.2929C25.6512 70.1054 25.9959 70 26.3554 70H64.6446C65.0041 70 65.3488 70.1054 65.603 70.2929C65.8572 70.4804 66 70.7348 66 71C66 71.2652 65.8572 71.5196 65.603 71.7071C65.3488 71.8946 65.0041 72 64.6446 72Z" fill="#CCCCCC"/>
<path d="M64.6446 79H26.3554C25.9959 79 25.6512 78.8946 25.397 78.7071C25.1428 78.5196 25 78.2652 25 78C25 77.7348 25.1428 77.4804 25.397 77.2929C25.6512 77.1054 25.9959 77 26.3554 77H64.6446C65.0041 77 65.3488 77.1054 65.603 77.2929C65.8572 77.4804 66 77.7348 66 78C66 78.2652 65.8572 78.5196 65.603 78.7071C65.3488 78.8946 65.0041 79 64.6446 79Z" fill="#CCCCCC"/>
<path d="M76.5 26C83.9558 26 90 20.1797 90 13C90 5.8203 83.9558 0 76.5 0C69.0442 0 63 5.8203 63 13C63 20.1797 69.0442 26 76.5 26Z" fill="#015AFF"/>
<path d="M75.3054 18C75.02 18.0005 74.7422 17.9048 74.5139 17.7273L74.4998 17.7163L71.5188 15.3525C71.3807 15.2428 71.2648 15.106 71.1778 14.9499C71.0907 14.7937 71.0342 14.6214 71.0114 14.4426C70.9886 14.2638 71 14.0821 71.045 13.9079C71.09 13.7337 71.1676 13.5704 71.2734 13.4273C71.3793 13.2842 71.5113 13.1641 71.6619 13.0738C71.8125 12.9836 71.9788 12.925 72.1513 12.9014C72.3237 12.8778 72.499 12.8896 72.6671 12.9362C72.8351 12.9828 72.9927 13.0633 73.1308 13.173L75.0616 14.7078L79.6244 8.53749C79.7302 8.39444 79.8621 8.27438 80.0127 8.18419C80.1633 8.09399 80.3295 8.03542 80.5019 8.01182C80.6743 7.98822 80.8495 8.00004 81.0175 8.04662C81.1855 8.0932 81.343 8.17362 81.481 8.2833L81.4813 8.2836L81.453 8.32435L81.4821 8.2836C81.7605 8.5054 81.9427 8.83265 81.9886 9.19351C82.0345 9.55438 81.9405 9.91939 81.727 10.2085L76.3603 17.4628C76.2361 17.63 76.0765 17.7652 75.8937 17.8581C75.711 17.951 75.5101 17.999 75.3066 17.9984L75.3054 18Z" fill="white"/>
</g>
<defs>
<clipPath id="clip0_1775_45843">
<rect width="133.981" height="120" fill="white"/>
</clipPath>
</defs>
</svg>
