<svg width="186" height="120" viewBox="0 0 186 120" fill="none" xmlns="http://www.w3.org/2000/svg">
<g clip-path="url(#clip0_1775_45793)">
<path d="M138.683 8.21364C138.454 7.53777 135.583 5.24031 137.342 4.85415L138.785 6.77745L145.416 0.145996L146.083 0.812966L138.683 8.21364Z" fill="#015AFF"/>
<path d="M138.683 30.7633C138.454 30.0875 135.583 27.79 137.342 27.4038L138.785 29.3271L145.416 22.6957L146.083 23.3626L138.683 30.7633Z" fill="#015AFF"/>
<path d="M138.683 53.6353C138.454 52.9594 135.583 50.6619 137.342 50.2758L138.785 52.1991L145.416 45.5676L146.083 46.2346L138.683 53.6353Z" fill="#015AFF"/>
<path d="M132.576 35.1439C133.706 35.1439 134.623 34.2277 134.623 33.0975C134.623 31.9673 133.706 31.0511 132.576 31.0511C131.446 31.0511 130.53 31.9673 130.53 33.0975C130.53 34.2277 131.446 35.1439 132.576 35.1439Z" fill="#588DF0"/>
<path d="M132.576 12.8386C133.706 12.8386 134.623 11.9224 134.623 10.7922C134.623 9.66204 133.706 8.74585 132.576 8.74585C131.446 8.74585 130.53 9.66204 130.53 10.7922C130.53 11.9224 131.446 12.8386 132.576 12.8386Z" fill="#588DF0"/>
<path d="M185.065 6.08557H152.119V6.49484H185.065V6.08557Z" fill="#588DF0"/>
<path d="M133.599 58.9215C134.73 58.9215 135.646 58.0053 135.646 56.8751C135.646 55.7449 134.73 54.8287 133.599 54.8287C132.469 54.8287 131.553 55.7449 131.553 56.8751C131.553 58.0053 132.469 58.9215 133.599 58.9215Z" fill="#588DF0"/>
<path d="M185.065 28.6353H152.119V29.0445H185.065V28.6353Z" fill="#588DF0"/>
<path d="M185.065 51.5071H152.119V51.9164H185.065V51.5071Z" fill="#588DF0"/>
<path d="M143.851 56.6843H133.619V46.2478H140.577V46.6571H134.029V56.275H143.442V51.5684H143.851V56.6843Z" fill="#588DF0"/>
<path d="M143.851 33.7651H133.619V23.3286H140.577V23.7379H134.029V33.3558H143.442V28.6492H143.851V33.7651Z" fill="#588DF0"/>
<path d="M143.851 10.4365H133.619V0H140.577V0.409273H134.029V10.0272H143.442V5.32055H143.851V10.4365Z" fill="#588DF0"/>
<path d="M77.0467 37.1971C77.0467 37.1971 74.3121 48.7429 77.6543 48.7429C80.9966 48.7429 88.8963 35.6779 88.8963 35.6779L86.1618 32.3357L81.2536 39.1501L80.9965 35.6779L77.0467 37.1971Z" fill="#FFB8B8"/>
<path d="M88.1676 36.1798C89.6368 36.1798 90.8279 34.9888 90.8279 33.5195C90.8279 32.0503 89.6368 30.8593 88.1676 30.8593C86.6984 30.8593 85.5073 32.0503 85.5073 33.5195C85.5073 34.9888 86.6984 36.1798 88.1676 36.1798Z" fill="#FFB8B8"/>
<path d="M74.7281 115.834L78.2689 115.834L79.9537 102.175L74.7273 102.175L74.7281 115.834Z" fill="#FFB8B8"/>
<path d="M74.6032 119.528L85.4925 119.528V119.39C85.4924 118.266 85.0458 117.188 84.251 116.393C83.4562 115.598 82.3781 115.152 81.2541 115.152H81.2538L79.2648 113.643L75.5536 115.152L74.603 115.152L74.6032 119.528Z" fill="#2F2E41"/>
<path d="M36.6377 111.416L39.8061 112.997L47.4128 101.528L42.7365 99.1947L36.6377 111.416Z" fill="#FFB8B8"/>
<path d="M34.8765 114.666L44.6199 119.528L44.6814 119.405C45.1833 118.399 45.2651 117.235 44.9088 116.169C44.5526 115.103 43.7875 114.222 42.7817 113.72L42.7815 113.72L41.6756 111.481L37.6811 111.174L36.8306 110.75L34.8765 114.666Z" fill="#2F2E41"/>
<path d="M51.8341 58.1429C51.8341 58.1429 50.419 75.1582 50.1152 78.8042C49.9068 81.0898 49.396 83.3375 48.596 85.4886C48.596 85.4886 47.9883 86.704 47.9883 87.9193L41.1013 100.436C41.1013 100.436 38.9968 101.983 39.3006 103.198C39.6044 104.413 38.0317 105.142 38.0317 105.142L45.2844 106.54C45.2844 106.54 44.9805 105.629 45.8921 105.325C46.8036 105.021 47.5292 102.386 47.5292 102.386L57.7111 85.7925L65.0032 70.6006C65.0032 70.6006 69.2569 84.2733 70.1684 85.7925C70.1684 85.7925 73.5107 102.807 74.1183 104.327C74.726 105.846 75.0298 105.846 74.726 106.453C74.4222 107.061 74.4222 107.669 74.726 107.973C75.0298 108.276 80.8028 107.973 80.8028 107.973L79.2836 86.4002L76.549 60.5739L62.5725 56.3202L51.8341 58.1429Z" fill="#2F2E41"/>
<path d="M65.5178 17.5234C69.0417 17.5234 71.8984 14.6667 71.8984 11.1428C71.8984 7.6189 69.0417 4.76221 65.5178 4.76221C61.9939 4.76221 59.1372 7.6189 59.1372 11.1428C59.1372 14.6667 61.9939 17.5234 65.5178 17.5234Z" fill="#FFB8B8"/>
<path d="M77.1567 26.8479L69.561 22.2459C69.561 22.2459 69.3505 19.3882 67.1863 19.2537C66.0998 19.1862 64.4692 19.083 62.0224 18.9252C61.5053 18.8919 61.1563 21.721 60.5637 21.6826L52.5459 23.8095L53.7612 44.4705C53.7612 44.4705 51.9382 52.6741 52.5459 54.1933C53.1535 55.7125 51.0267 56.3201 51.6343 56.624C52.242 56.9278 51.6343 59.0547 51.6343 59.0547C51.6343 59.0547 63.484 65.1314 76.549 60.5739L75.3337 56.624C75.4991 56.1076 75.5301 55.5577 75.4238 55.026C75.3174 54.4943 75.0773 53.9986 74.726 53.5856C74.726 53.5856 75.9414 51.7626 74.4222 50.2434C74.4222 50.2434 75.0298 47.5088 73.5106 46.2935L73.2068 42.0397L74.1183 39.9129L77.1567 26.8479Z" fill="#E6E6E6"/>
<path d="M59.9811 14.7878L59.8027 14.3735C59.7798 14.32 57.5233 8.98563 59.5234 5.69526C60.4492 4.17198 62.1328 3.31196 64.5271 3.1393C68.2734 2.86842 70.8374 3.7571 72.15 5.77879C72.3701 6.12143 72.4938 6.51703 72.5081 6.92401C72.5224 7.33099 72.4268 7.7343 72.2313 8.09155C72.0358 8.4488 71.7477 8.74679 71.3973 8.95418C71.0468 9.16156 70.6469 9.2707 70.2397 9.2701H70.1893L69.501 8.37631L69.4609 8.46324C69.2117 9.00241 68.6394 9.29757 67.969 9.23292C67.855 9.22474 67.754 9.32316 67.6729 9.53379C67.6456 9.62593 67.594 9.70902 67.5235 9.77433C67.453 9.83965 67.3662 9.88479 67.2723 9.905C66.777 10.0014 66.0709 9.37752 65.7549 9.06657C65.7427 9.13813 65.7153 9.20625 65.6745 9.26631C65.6337 9.32637 65.5805 9.37697 65.5185 9.41469C65.1854 9.60684 64.6672 9.35584 64.5184 9.2759C63.3332 9.5277 62.566 9.46035 62.2374 9.07596C62.0146 10.6524 61.5364 13.4899 60.9629 13.6472C60.903 13.661 60.8402 13.6551 60.7839 13.6305C60.7275 13.6059 60.6806 13.5638 60.65 13.5104C60.5119 13.3312 60.3885 13.2418 60.3114 13.2669C60.1249 13.3263 60.0148 13.9406 59.999 14.3371L59.9811 14.7878Z" fill="#2F2E41"/>
<path d="M73.8144 27.1517L76.8453 26.6593C79.0287 28.7571 80.516 31.4742 81.1065 34.4438C82.018 39.3052 82.3218 40.2168 82.3218 40.2168L75.0297 42.0398L71.0798 34.4438L73.8144 27.1517Z" fill="#E6E6E6"/>
<path d="M60.3653 33.4749L58.4922 57.2197L106.292 60.9903L108.165 37.2455L60.3653 33.4749Z" fill="white"/>
<path d="M65.4721 35.3147C64.3023 34.4793 62.8171 34.4189 62.2498 34.4309C62.4228 34.9712 62.9607 36.3569 64.1305 37.1926C65.3031 38.0301 66.7864 38.0886 67.3529 38.0769C67.1799 37.5368 66.642 36.1506 65.4721 35.3147Z" fill="#015AFF"/>
<path d="M70.0866 50.4239L62.4113 49.8185C62.1845 49.8006 61.9564 49.8275 61.74 49.8978C61.5236 49.9681 61.3232 50.0802 61.1502 50.228C60.9772 50.3757 60.835 50.556 60.7317 50.7587C60.6284 50.9614 60.566 51.1824 60.5481 51.4092C60.5302 51.636 60.5572 51.8641 60.6274 52.0804C60.6977 52.2968 60.8099 52.4972 60.9576 52.6702C61.1053 52.8432 61.2856 52.9855 61.4883 53.0888C61.691 53.1921 61.912 53.2545 62.1388 53.2724L69.8141 53.8778C70.2721 53.9139 70.7257 53.7667 71.0751 53.4683C71.4246 53.17 71.6411 52.7451 71.6773 52.2871C71.7134 51.8291 71.5661 51.3755 71.2678 51.0261C70.9695 50.6767 70.5446 50.4601 70.0866 50.4239Z" fill="#015AFF"/>
<path d="M106.281 34.9376L63.2478 31.5427C62.7472 31.5033 62.2438 31.5628 61.7663 31.718C61.2888 31.8731 60.8465 32.1208 60.4648 32.4468C60.083 32.7729 59.7691 33.171 59.5412 33.6183C59.3133 34.0657 59.1757 34.5535 59.1363 35.0541L57.4813 56.0192C57.4017 57.0304 57.727 58.0317 58.3856 58.8031C59.0441 59.5745 59.9821 60.0527 60.9932 60.1327L104.026 63.5277C104.527 63.5671 105.03 63.5075 105.508 63.3524C105.985 63.1972 106.427 62.9496 106.809 62.6235C107.191 62.2974 107.505 61.8994 107.733 61.452C107.961 61.0047 108.098 60.5168 108.138 60.0163L109.71 40.0897L109.742 39.6826L109.792 39.0491C109.832 38.5486 109.772 38.0452 109.617 37.5677C109.462 37.0902 109.214 36.6479 108.888 36.2661C108.562 35.8843 108.164 35.5705 107.717 35.3425C107.269 35.1146 106.781 34.977 106.281 34.9376ZM105.01 53.1785L104.737 56.6324C104.688 57.2425 104.398 57.808 103.933 58.2053C103.467 58.6026 102.863 58.7994 102.253 58.7526L96.4956 58.299C95.8856 58.2492 95.3201 57.9598 94.9228 57.4942C94.5255 57.0286 94.3287 56.4247 94.3754 55.8144L94.6481 52.3604C94.6982 51.7505 94.9876 51.1851 95.4531 50.7878C95.9187 50.3906 96.5225 50.1937 97.1327 50.2402L102.888 50.6944C103.498 50.7444 104.063 51.0337 104.461 51.499C104.858 51.9644 105.056 52.5681 105.01 53.1785ZM60.1673 51.3774C60.212 50.8185 60.4765 50.3002 60.9029 49.936C61.3293 49.5719 61.8827 49.3918 62.4417 49.4352L70.1167 50.0411C70.394 50.0625 70.6643 50.1383 70.9122 50.2643C71.1601 50.3902 71.3808 50.5637 71.5617 50.775C71.7425 50.9862 71.8799 51.231 71.9661 51.4954C72.0522 51.7598 72.0854 52.0386 72.0638 52.3158C72.0422 52.5931 71.9661 52.8633 71.84 53.1112C71.7139 53.359 71.5402 53.5795 71.3288 53.7602C71.1174 53.9408 70.8724 54.0781 70.608 54.164C70.3435 54.25 70.0647 54.283 69.7875 54.2611L69.7835 54.2621L62.1085 53.6563C61.8313 53.6344 61.5612 53.558 61.3135 53.4316C61.0659 53.3051 60.8456 53.1311 60.6653 52.9194C60.485 52.7078 60.3482 52.4626 60.2628 52.198C60.1773 51.9334 60.1449 51.6546 60.1673 51.3774ZM61.8104 34.294L61.7579 34.0793L61.9787 34.0591C62.065 34.0498 64.1067 33.8665 65.6959 35.0018C67.2852 36.137 67.7725 38.1288 67.7937 38.2121L67.8442 38.4273L67.6239 38.4495C67.3112 38.4727 66.9972 38.4707 66.6848 38.4433C65.6912 38.3851 64.7316 38.061 63.9062 37.5049C62.3169 36.3696 61.8296 34.3778 61.8104 34.294Z" fill="#015AFF"/>
<path d="M98.5536 55.4692L96.0592 55.2724C95.8813 55.2587 95.7051 55.3161 95.5695 55.4321C95.4339 55.5481 95.3499 55.7132 95.3358 55.8911C95.3218 56.069 95.3789 56.2452 95.4947 56.381C95.6104 56.5169 95.7754 56.6012 95.9532 56.6156L98.4477 56.8123C98.6256 56.8261 98.8017 56.7686 98.9374 56.6526C99.073 56.5366 99.1571 56.3715 99.1711 56.1936C99.1851 56.0157 99.128 55.8395 99.0122 55.7037C98.8965 55.5678 98.7315 55.4835 98.5536 55.4692Z" fill="#015AFF"/>
<path d="M103.159 55.8324L100.664 55.6356C100.487 55.622 100.311 55.6795 100.175 55.7955C100.04 55.9115 99.9556 56.0765 99.9415 56.2544C99.9275 56.4322 99.9846 56.6083 100.1 56.7441C100.216 56.8799 100.381 56.9643 100.558 56.9788L103.053 57.1756C103.231 57.1892 103.407 57.1316 103.542 57.0157C103.678 56.8997 103.762 56.7347 103.776 56.5568C103.79 56.379 103.733 56.2029 103.617 56.0671C103.502 55.9313 103.337 55.8469 103.159 55.8324Z" fill="#015AFF"/>
<path d="M98.6899 53.7422L96.1955 53.5454C96.0176 53.5318 95.8416 53.5893 95.7061 53.7053C95.5706 53.8213 95.4866 53.9863 95.4725 54.1642C95.4585 54.342 95.5156 54.5181 95.6313 54.6539C95.7469 54.7897 95.9117 54.8741 96.0895 54.8886L98.584 55.0854C98.7619 55.0991 98.938 55.0417 99.0737 54.9257C99.2093 54.8097 99.2933 54.6446 99.3074 54.4667C99.3214 54.2887 99.2643 54.1125 99.1485 53.9767C99.0327 53.8409 98.8678 53.7565 98.6899 53.7422Z" fill="#015AFF"/>
<path d="M103.295 54.1054L100.801 53.9086C100.623 53.8949 100.447 53.9523 100.311 54.0683C100.175 54.1843 100.091 54.3494 100.077 54.5273C100.063 54.7052 100.12 54.8814 100.236 55.0173C100.352 55.1531 100.517 55.2374 100.695 55.2518L103.189 55.4486C103.367 55.4623 103.543 55.4048 103.679 55.2888C103.814 55.1728 103.899 55.0078 103.913 54.8299C103.927 54.6519 103.869 54.4757 103.754 54.3399C103.638 54.2041 103.473 54.1197 103.295 54.1054Z" fill="#015AFF"/>
<path d="M98.8262 52.0152L96.3317 51.8184C96.1537 51.8047 95.9776 51.8621 95.842 51.9781C95.7064 52.0941 95.6223 52.2592 95.6083 52.4371C95.5943 52.615 95.6514 52.7912 95.7671 52.9271C95.8829 53.0629 96.0478 53.1472 96.2257 53.1616L98.7202 53.3584C98.8981 53.3719 99.0741 53.3144 99.2096 53.1984C99.3451 53.0825 99.4291 52.9174 99.4431 52.7396C99.4571 52.5618 99.4001 52.3856 99.2844 52.2498C99.1688 52.114 99.004 52.0296 98.8262 52.0152Z" fill="#015AFF"/>
<path d="M103.431 52.3784L100.937 52.1816C100.759 52.1681 100.583 52.2256 100.447 52.3416C100.312 52.4575 100.228 52.6226 100.214 52.8004C100.2 52.9782 100.257 53.1544 100.372 53.2902C100.488 53.426 100.653 53.5104 100.831 53.5248L103.325 53.7216C103.503 53.7352 103.679 53.6777 103.815 53.5617C103.95 53.4457 104.034 53.2807 104.048 53.1029C104.062 52.925 104.005 52.7489 103.889 52.6131C103.774 52.4773 103.609 52.3929 103.431 52.3784Z" fill="#015AFF"/>
<path d="M58.4967 41.6691L58.4646 42.0773L108.98 46.0455L109.012 45.6373L58.4967 41.6691Z" fill="white"/>
<path d="M109.742 39.6825L109.71 40.0898L107.952 39.9518L89.2212 38.4805L89.255 38.0729L107.984 39.5446L109.742 39.6825Z" fill="#588DF0"/>
<path d="M47.9883 35.3554C47.9883 35.3554 45.2538 46.9013 48.596 46.9013C51.9382 46.9013 59.838 33.8362 59.838 33.8362L57.1034 30.494L52.1952 37.3084L51.9382 33.8362L47.9883 35.3554Z" fill="#FFB8B8"/>
<path d="M59.1092 34.3381C60.5785 34.3381 61.7695 33.1471 61.7695 31.6779C61.7695 30.2086 60.5785 29.0176 59.1092 29.0176C57.64 29.0176 56.449 30.2086 56.449 31.6779C56.449 33.1471 57.64 34.3381 59.1092 34.3381Z" fill="#FFB8B8"/>
<path d="M54.759 25.6326L52.936 23.8096C52.936 23.8096 49.2899 25.9364 48.9861 28.0633C48.6823 30.1902 47.1631 36.8746 47.1631 36.8746L52.7841 37.3304L54.6071 34.5958L54.759 25.6326Z" fill="#E6E6E6"/>
</g>
<defs>
<clipPath id="clip0_1775_45793">
<rect width="185.065" height="120" fill="white"/>
</clipPath>
</defs>
</svg>
