<svg width="28" height="28" viewBox="0 0 28 28" fill="none" xmlns="http://www.w3.org/2000/svg">
<path d="M8.66407 22.0591C9.63165 22.0591 10.4244 22.8687 10.4244 23.8688C10.4244 24.857 9.63165 25.6666 8.66407 25.6666C7.68484 25.6666 6.89212 24.857 6.89212 23.8688C6.89212 22.8687 7.68484 22.0591 8.66407 22.0591ZM21.7789 22.0591C22.7464 22.0591 23.5391 22.8687 23.5391 23.8688C23.5391 24.857 22.7464 25.6666 21.7789 25.6666C20.7996 25.6666 20.0069 24.857 20.0069 23.8688C20.0069 22.8687 20.7996 22.0591 21.7789 22.0591ZM3.36011 2.34345L6.14044 2.77087C6.5368 2.8435 6.82824 3.17567 6.86321 3.58047L7.0847 6.2474C7.11968 6.62958 7.42277 6.91533 7.79582 6.91533H23.5394C24.2505 6.91533 24.7168 7.16535 25.1831 7.71303C25.6494 8.2607 25.731 9.04649 25.6261 9.75966L24.5186 17.57C24.3088 19.0713 23.0498 20.1774 21.5692 20.1774H8.85083C7.30037 20.1774 6.01803 18.9641 5.8898 17.3926L4.8173 4.41389L3.05701 4.10433C2.59071 4.02099 2.26429 3.55666 2.3459 3.08042C2.4275 2.59347 2.88215 2.27082 3.36011 2.34345ZM19.704 11.3193H16.4749C15.9853 11.3193 15.6006 11.7122 15.6006 12.2123C15.6006 12.7004 15.9853 13.1052 16.4749 13.1052H19.704C20.1937 13.1052 20.5784 12.7004 20.5784 12.2123C20.5784 11.7122 20.1937 11.3193 19.704 11.3193Z" fill="white"/>
</svg>
