<svg width="16" height="16" viewBox="0 0 16 16" fill="none" xmlns="http://www.w3.org/2000/svg">
<path d="M13.9313 2.0686C13.3065 1.44377 12.2934 1.44377 11.6686 2.0686L5.59998 8.13723V10.4H7.86271L13.9313 4.33135C14.5562 3.70651 14.5562 2.69344 13.9313 2.0686Z" fill="#015AFF"/>
<path fill-rule="evenodd" clip-rule="evenodd" d="M1.59998 4.79998C1.59998 3.91632 2.31632 3.19998 3.19998 3.19998H6.39998C6.8418 3.19998 7.19998 3.55815 7.19998 3.99998C7.19998 4.4418 6.8418 4.79998 6.39998 4.79998H3.19998V12.8H11.2V9.59998C11.2 9.15815 11.5581 8.79998 12 8.79998C12.4418 8.79998 12.8 9.15815 12.8 9.59998V12.8C12.8 13.6836 12.0836 14.4 11.2 14.4H3.19998C2.31632 14.4 1.59998 13.6836 1.59998 12.8V4.79998Z" fill="#015AFF"/>
</svg>
