<svg width="18" height="18" viewBox="0 0 18 18" fill="none" xmlns="http://www.w3.org/2000/svg">
<path d="M2.70005 2.70001C2.20299 2.70001 1.80005 3.10296 1.80005 3.60001C1.80005 4.09707 2.20299 4.50001 2.70005 4.50001H12.6C13.0971 4.50001 13.5 4.09707 13.5 3.60001C13.5 3.10296 13.0971 2.70001 12.6 2.70001H2.70005Z" fill="white"/>
<path d="M2.70005 6.30001C2.20299 6.30001 1.80005 6.70296 1.80005 7.20001C1.80005 7.69707 2.20299 8.10001 2.70005 8.10001H7.20005C7.69711 8.10001 8.10005 7.69707 8.10005 7.20001C8.10005 6.70296 7.69711 6.30001 7.20005 6.30001H2.70005Z" fill="white"/>
<path d="M2.70005 9.90001C2.20299 9.90001 1.80005 10.303 1.80005 10.8C1.80005 11.2971 2.20299 11.7 2.70005 11.7H6.30005C6.79711 11.7 7.20005 11.2971 7.20005 10.8C7.20005 10.303 6.79711 9.90001 6.30005 9.90001H2.70005Z" fill="white"/>
<path d="M11.7 14.4C11.7 14.8971 12.103 15.3 12.6 15.3C13.0971 15.3 13.5 14.8971 13.5 14.4L13.5 9.3728L14.6637 10.5364C15.0151 10.8879 15.585 10.8879 15.9364 10.5364C16.2879 10.1849 16.2879 9.61509 15.9364 9.26362L13.2364 6.56362C13.0677 6.39483 12.8387 6.30001 12.6 6.30001C12.3614 6.30001 12.1324 6.39483 11.9637 6.56362L9.26365 9.26362C8.91218 9.61509 8.91218 10.1849 9.26365 10.5364C9.61512 10.8879 10.185 10.8879 10.5364 10.5364L11.7 9.3728L11.7 14.4Z" fill="white"/>
</svg>
