<svg width="20" height="20" viewBox="0 0 20 20" fill="none" xmlns="http://www.w3.org/2000/svg">
<path d="M9.31228 2.3574C9.52792 1.69906 10.4721 1.69907 10.6878 2.3574L11.9956 6.35008C12.2273 7.05734 12.8899 7.53255 13.6337 7.53255H17.8658C18.5743 7.53255 18.8492 8.41969 18.2922 8.82112L14.8683 11.2887C14.2642 11.7241 14.0094 12.4981 14.2413 13.2061L15.5491 17.1988C15.7598 17.8421 15.0128 18.41 14.435 17.9936L11.0111 15.526C10.4079 15.0913 9.59212 15.0913 8.98897 15.526L5.56506 17.9936C4.98729 18.41 4.24021 17.8421 4.45094 17.1988L5.75876 13.2061C5.99066 12.4981 5.73586 11.7241 5.13175 11.2887L1.70784 8.82111C1.15085 8.41969 1.42571 7.53255 2.13421 7.53255H6.3664C7.11012 7.53255 7.7728 7.05734 8.00446 6.35009L9.31228 2.3574Z" stroke="#2C3138"/>
</svg>
