<svg width="59" height="59" viewBox="0 0 59 59" fill="none" xmlns="http://www.w3.org/2000/svg">
<g filter="url(#filter0_d_1211_39126)">
<path d="M2 27.5C2 12.3122 14.3122 0 29.5 0C44.6878 0 57 12.3122 57 27.5C57 42.6878 44.6878 55 29.5 55C14.3122 55 2 42.6878 2 27.5Z" fill="#FFBE02" shape-rendering="crispEdges"/>
<path fill-rule="evenodd" clip-rule="evenodd" d="M25 19C23.8954 19 23 19.8954 23 21V35L26.5 33L30 35L33.5 33L37 35V21C37 19.8954 36.1046 19 35 19H25ZM27.5 22C26.6716 22 26 22.6716 26 23.5C26 24.3284 26.6716 25 27.5 25C28.3284 25 29 24.3284 29 23.5C29 22.6716 28.3284 22 27.5 22ZM33.7071 22.2929C33.3166 21.9024 32.6834 21.9024 32.2929 22.2929L26.2929 28.2929C25.9024 28.6834 25.9024 29.3166 26.2929 29.7071C26.6834 30.0976 27.3166 30.0976 27.7071 29.7071L33.7071 23.7071C34.0976 23.3166 34.0976 22.6834 33.7071 22.2929ZM32.5 27C31.6716 27 31 27.6716 31 28.5C31 29.3284 31.6716 30 32.5 30C33.3284 30 34 29.3284 34 28.5C34 27.6716 33.3284 27 32.5 27Z" fill="white"/>
</g>
<defs>
<filter id="filter0_d_1211_39126" x="0" y="0" width="59" height="59" filterUnits="userSpaceOnUse" color-interpolation-filters="sRGB">
<feFlood flood-opacity="0" result="BackgroundImageFix"/>
<feColorMatrix in="SourceAlpha" type="matrix" values="0 0 0 0 0 0 0 0 0 0 0 0 0 0 0 0 0 0 127 0" result="hardAlpha"/>
<feOffset dy="2"/>
<feGaussianBlur stdDeviation="1"/>
<feComposite in2="hardAlpha" operator="out"/>
<feColorMatrix type="matrix" values="0 0 0 0 0 0 0 0 0 0 0 0 0 0 0 0 0 0 0.1 0"/>
<feBlend mode="normal" in2="BackgroundImageFix" result="effect1_dropShadow_1211_39126"/>
<feBlend mode="normal" in="SourceGraphic" in2="effect1_dropShadow_1211_39126" result="shape"/>
</filter>
</defs>
</svg>
