<svg width="61" height="59" viewBox="0 0 61 59" fill="none" xmlns="http://www.w3.org/2000/svg">
<g filter="url(#filter0_d_1155_39080)">
<path d="M2 27.5C2 12.3122 14.3122 0 29.5 0C44.6878 0 57 12.3122 57 27.5C57 42.6878 44.6878 55 29.5 55C14.3122 55 2 42.6878 2 27.5Z" fill="#FFBE02" shape-rendering="crispEdges"/>
<path d="M25.8074 33.3322C26.5676 33.3322 27.1905 33.9684 27.1905 34.7542C27.1905 35.5306 26.5676 36.1667 25.8074 36.1667C25.038 36.1667 24.4151 35.5306 24.4151 34.7542C24.4151 33.9684 25.038 33.3322 25.8074 33.3322ZM36.1118 33.3322C36.8721 33.3322 37.4949 33.9684 37.4949 34.7542C37.4949 35.5306 36.8721 36.1667 36.1118 36.1667C35.3424 36.1667 34.7196 35.5306 34.7196 34.7542C34.7196 33.9684 35.3424 33.3322 36.1118 33.3322ZM21.64 17.8414L23.8245 18.1772C24.1359 18.2343 24.3649 18.4953 24.3924 18.8133L24.5664 20.9088C24.5939 21.2091 24.8321 21.4336 25.1252 21.4336H37.4951C38.0538 21.4336 38.4202 21.63 38.7866 22.0603C39.153 22.4907 39.2171 23.1081 39.1347 23.6684L38.2645 29.8051C38.0996 30.9847 37.1104 31.8537 35.9472 31.8537H25.9541C24.7359 31.8537 23.7283 30.9005 23.6276 29.6657L22.7849 19.4682L21.4018 19.2249C21.0354 19.1595 20.779 18.7946 20.8431 18.4204C20.9072 18.0378 21.2644 17.7843 21.64 17.8414ZM34.4816 24.8939H31.9444C31.5597 24.8939 31.2575 25.2026 31.2575 25.5955C31.2575 25.979 31.5597 26.2971 31.9444 26.2971H34.4816C34.8663 26.2971 35.1686 25.979 35.1686 25.5955C35.1686 25.2026 34.8663 24.8939 34.4816 24.8939Z" fill="white"/>
<circle cx="49" cy="43" r="4.44444" fill="white"/>
<path fill-rule="evenodd" clip-rule="evenodd" d="M49 51C53.4183 51 57 47.4183 57 43C57 38.5817 53.4183 35 49 35C44.5817 35 41 38.5817 41 43C41 47.4183 44.5817 51 49 51ZM50 40C50 39.4477 49.5523 39 49 39C48.4477 39 48 39.4477 48 40V42H46C45.4477 42 45 42.4477 45 43C45 43.5523 45.4477 44 46 44H48V46C48 46.5523 48.4477 47 49 47C49.5523 47 50 46.5523 50 46V44H52C52.5523 44 53 43.5523 53 43C53 42.4477 52.5523 42 52 42H50V40Z" fill="#4CAE4C"/>
</g>
<defs>
<filter id="filter0_d_1155_39080" x="0" y="0" width="61" height="59" filterUnits="userSpaceOnUse" color-interpolation-filters="sRGB">
<feFlood flood-opacity="0" result="BackgroundImageFix"/>
<feColorMatrix in="SourceAlpha" type="matrix" values="0 0 0 0 0 0 0 0 0 0 0 0 0 0 0 0 0 0 127 0" result="hardAlpha"/>
<feOffset dy="2"/>
<feGaussianBlur stdDeviation="1"/>
<feComposite in2="hardAlpha" operator="out"/>
<feColorMatrix type="matrix" values="0 0 0 0 0 0 0 0 0 0 0 0 0 0 0 0 0 0 0.1 0"/>
<feBlend mode="normal" in2="BackgroundImageFix" result="effect1_dropShadow_1155_39080"/>
<feBlend mode="normal" in="SourceGraphic" in2="effect1_dropShadow_1155_39080" result="shape"/>
</filter>
</defs>
</svg>
