<svg width="64" height="64" viewBox="0 0 64 64" fill="none" xmlns="http://www.w3.org/2000/svg">
<path d="M0 32C0 14.3269 14.3269 0 32 0C49.6731 0 64 14.3269 64 32C64 49.6731 49.6731 64 32 64C14.3269 64 0 49.6731 0 32Z" fill="#FFBE02"/>
<path d="M26.6642 40.0592C27.6318 40.0592 28.4245 40.8688 28.4245 41.8689C28.4245 42.8571 27.6318 43.6667 26.6642 43.6667C25.685 43.6667 24.8922 42.8571 24.8922 41.8689C24.8922 40.8688 25.685 40.0592 26.6642 40.0592ZM39.779 40.0592C40.7466 40.0592 41.5393 40.8688 41.5393 41.8689C41.5393 42.8571 40.7466 43.6667 39.779 43.6667C38.7997 43.6667 38.007 42.8571 38.007 41.8689C38.007 40.8688 38.7997 40.0592 39.779 40.0592ZM21.3602 20.3436L24.1406 20.771C24.5369 20.8436 24.8284 21.1758 24.8633 21.5806L25.0848 24.2475C25.1198 24.6297 25.4229 24.9154 25.7959 24.9154H41.5395C42.2506 24.9154 42.7169 25.1655 43.1832 25.7131C43.6495 26.2608 43.7311 27.0466 43.6262 27.7598L42.5187 35.5701C42.3089 37.0714 41.0499 38.1775 39.5694 38.1775H26.8509C25.3005 38.1775 24.0182 36.9643 23.8899 35.3927L22.8174 22.414L21.0571 22.1045C20.5908 22.0211 20.2644 21.5568 20.346 21.0805C20.4276 20.5936 20.8823 20.2709 21.3602 20.3436ZM37.7042 29.3195H34.475C33.9854 29.3195 33.6007 29.7124 33.6007 30.2124C33.6007 30.7005 33.9854 31.1053 34.475 31.1053H37.7042C38.1938 31.1053 38.5785 30.7005 38.5785 30.2124C38.5785 29.7124 38.1938 29.3195 37.7042 29.3195Z" fill="white"/>
</svg>
