<svg width="30" height="30" viewBox="0 0 30 30" fill="none" xmlns="http://www.w3.org/2000/svg">
<path d="M14.25 16.4375L10.1875 27.5625L9.31251 30H4.9375L6.49997 25.625L9.8125 16.4375H14.25Z" fill="#FFBE02"/>
<path d="M25.0625 30H20.6875L19.8125 27.5625L15.75 16.4375H20.1875L23.5 25.625L25.0625 30Z" fill="#FFBE02"/>
<path d="M9.81252 16.4375H14.25L10.25 27.5625C8.9375 27.125 7.6875 26.4375 6.5 25.625L9.81252 16.4375Z" fill="#F8B64C"/>
<path d="M23.5001 25.625C22.3751 26.4375 21.1251 27.0625 19.7501 27.5625L15.7501 16.4375H20.1876L23.5001 25.625Z" fill="#F8B64C"/>
<path d="M15 27.5001C22.594 27.5001 28.7501 21.344 28.7501 13.75C28.7501 6.1561 22.594 0 15 0C7.4061 0 1.25 6.1561 1.25 13.75C1.25 21.344 7.4061 27.5001 15 27.5001Z" fill="white"/>
<path d="M15 24.5625C20.9715 24.5625 25.8125 19.7215 25.8125 13.75C25.8125 7.77841 20.9715 2.9375 15 2.9375C9.02841 2.9375 4.1875 7.77841 4.1875 13.75C4.1875 19.7215 9.02841 24.5625 15 24.5625Z" fill="#EB321A"/>
<path d="M15 21.6875C19.3838 21.6875 22.9375 18.1338 22.9375 13.75C22.9375 9.36624 19.3838 5.8125 15 5.8125C10.6162 5.8125 7.0625 9.36624 7.0625 13.75C7.0625 18.1338 10.6162 21.6875 15 21.6875Z" fill="white"/>
<path d="M15 18.8125C17.796 18.8125 20.0625 16.546 20.0625 13.75C20.0625 10.9541 17.796 8.6875 15 8.6875C12.2041 8.6875 9.9375 10.9541 9.9375 13.75C9.9375 16.546 12.2041 18.8125 15 18.8125Z" fill="#EB321A"/>
<path d="M15 15.9374C16.2081 15.9374 17.1874 14.9581 17.1874 13.75C17.1874 12.5419 16.2081 11.5625 15 11.5625C13.7919 11.5625 12.8125 12.5419 12.8125 13.75C12.8125 14.9581 13.7919 15.9374 15 15.9374Z" fill="white"/>
<path d="M25.375 5.12501L15.375 14.0625H15.3125L14.6875 13.4375V13.375L24.6875 4.375H24.75L25.3125 5C25.375 5.06251 25.375 5.06251 25.375 5.12501Z" fill="#FFBE02"/>
<path d="M24 5.75002L20.375 8.99998L19.875 6.37502L23.5 3.125L24 5.75002Z" fill="#FFBE02"/>
<path d="M22.9375 9.74997L26.5625 6.56246L24 5.75L20.375 8.99996L22.9375 9.74997Z" fill="#FFBE02"/>
</svg>
