<svg width="18" height="18" viewBox="0 0 18 18" fill="none" xmlns="http://www.w3.org/2000/svg">
<path fill-rule="evenodd" clip-rule="evenodd" d="M8.99999 16.2C12.9764 16.2 16.2 12.9765 16.2 9.00005C16.2 5.0236 12.9764 1.80005 8.99999 1.80005C5.02354 1.80005 1.79999 5.0236 1.79999 9.00005C1.79999 12.9765 5.02354 16.2 8.99999 16.2ZM7.83638 6.56365C7.48491 6.21218 6.91506 6.21218 6.56359 6.56365C6.21212 6.91512 6.21212 7.48497 6.56359 7.83644L7.7272 9.00005L6.56359 10.1637C6.21212 10.5151 6.21212 11.085 6.56359 11.4364C6.91506 11.7879 7.48491 11.7879 7.83638 11.4364L8.99999 10.2728L10.1636 11.4364C10.5151 11.7879 11.0849 11.7879 11.4364 11.4364C11.7879 11.085 11.7879 10.5151 11.4364 10.1637L10.2728 9.00005L11.4364 7.83644C11.7879 7.48497 11.7879 6.91512 11.4364 6.56365C11.0849 6.21218 10.5151 6.21218 10.1636 6.56365L8.99999 7.72726L7.83638 6.56365Z" fill="#FF3232"/>
</svg>
